<svg width="42" height="42" viewBox="0 0 42 42" fill="none" xmlns="http://www.w3.org/2000/svg">
<g filter="url(#filter0_b_12982_68768)">
<rect x="0.5" y="0.5" width="41" height="41" rx="20.5" fill="white" fill-opacity="0.16" stroke="url(#paint0_linear_12982_68768)"/>
<g filter="url(#filter1_f_12982_68768)">
<circle cx="21" cy="21" r="8" fill="white"/>
</g>
<g filter="url(#filter2_b_12982_68768)">
<path d="M18.4285 12L21 10.5L23.5716 12" stroke="white" stroke-linecap="round" stroke-linejoin="round"/>
<path d="M21 10.5V14.25" stroke="white" stroke-miterlimit="10" stroke-linecap="round"/>
<path d="M23.5716 30L21 31.5L18.4285 30" stroke="white" stroke-linecap="round" stroke-linejoin="round"/>
<path d="M21 31.5V27.75" stroke="white" stroke-miterlimit="10" stroke-linecap="round"/>
<path d="M12 18.7275V15.7505L14.4914 14.2734" stroke="white" stroke-linecap="round" stroke-linejoin="round"/>
<path d="M12 15.75L15.1542 17.625" stroke="white" stroke-miterlimit="10" stroke-linecap="round"/>
<path d="M30 23.2734V26.2505L27.5085 27.7275" stroke="white" stroke-linecap="round" stroke-linejoin="round"/>
<path d="M29.9999 26.25L26.8457 24.375" stroke="white" stroke-miterlimit="10" stroke-linecap="round"/>
<path d="M14.4914 27.7505L12 26.2505V23.2734" stroke="white" stroke-linecap="round" stroke-linejoin="round"/>
<path d="M12 26.25L15.1237 24.375" stroke="white" stroke-miterlimit="10" stroke-linecap="round"/>
<path d="M27.5085 14.2734L30 15.7505V18.7275" stroke="white" stroke-linecap="round" stroke-linejoin="round"/>
<path d="M30 15.75L26.8458 17.625M21 24V21M21 21L23.5716 19.5M21 21L18.4285 19.5" stroke="white" stroke-miterlimit="10" stroke-linecap="round"/>
</g>
</g>
<defs>
<filter id="filter0_b_12982_68768" x="-24" y="-24" width="90" height="90" filterUnits="userSpaceOnUse" color-interpolation-filters="sRGB">
<feFlood flood-opacity="0" result="BackgroundImageFix"/>
<feGaussianBlur in="BackgroundImageFix" stdDeviation="12"/>
<feComposite in2="SourceAlpha" operator="in" result="effect1_backgroundBlur_12982_68768"/>
<feBlend mode="normal" in="SourceGraphic" in2="effect1_backgroundBlur_12982_68768" result="shape"/>
</filter>
<filter id="filter1_f_12982_68768" x="1" y="1" width="40" height="40" filterUnits="userSpaceOnUse" color-interpolation-filters="sRGB">
<feFlood flood-opacity="0" result="BackgroundImageFix"/>
<feBlend mode="normal" in="SourceGraphic" in2="BackgroundImageFix" result="shape"/>
<feGaussianBlur stdDeviation="6" result="effect1_foregroundBlur_12982_68768"/>
</filter>
<filter id="filter2_b_12982_68768" x="-15" y="-15" width="72" height="72" filterUnits="userSpaceOnUse" color-interpolation-filters="sRGB">
<feFlood flood-opacity="0" result="BackgroundImageFix"/>
<feGaussianBlur in="BackgroundImageFix" stdDeviation="12"/>
<feComposite in2="SourceAlpha" operator="in" result="effect1_backgroundBlur_12982_68768"/>
<feBlend mode="normal" in="SourceGraphic" in2="effect1_backgroundBlur_12982_68768" result="shape"/>
</filter>
<linearGradient id="paint0_linear_12982_68768" x1="3.21019" y1="0.735" x2="27.0256" y2="46.4206" gradientUnits="userSpaceOnUse">
<stop stop-color="white" stop-opacity="0.7"/>
<stop offset="1" stop-color="white" stop-opacity="0"/>
</linearGradient>
</defs>
</svg>
