<svg width="42" height="42" viewBox="0 0 42 42" fill="none" xmlns="http://www.w3.org/2000/svg">
<g filter="url(#filter0_b_12982_68681)">
<rect x="0.5" y="0.5" width="41" height="41" rx="20.5" fill="white" fill-opacity="0.16" stroke="url(#paint0_linear_12982_68681)"/>
<g filter="url(#filter1_f_12982_68681)">
<circle cx="21" cy="21" r="8" fill="white"/>
</g>
<path d="M21 22.9003C22.2072 22.9003 23.3649 22.4208 24.2185 21.5672C25.0721 20.7135 25.5517 19.5558 25.5517 18.3486C25.5517 17.1414 25.0721 15.9837 24.2185 15.13C23.3649 14.2764 22.2072 13.7969 21 13.7969C19.7928 13.7969 18.635 14.2764 17.7814 15.13C16.9278 15.9837 16.4482 17.1414 16.4482 18.3486C16.4482 19.5558 16.9278 20.7135 17.7814 21.5672C18.635 22.4208 19.7928 22.9003 21 22.9003Z" stroke="white" stroke-linecap="round" stroke-linejoin="round"/>
<path d="M24.0344 28.2089C24.6321 28.2089 25.224 28.0912 25.7763 27.8624C26.3285 27.6337 26.8303 27.2984 27.2529 26.8757C27.6756 26.4531 28.0109 25.9513 28.2396 25.3991C28.4684 24.8468 28.5861 24.2549 28.5861 23.6572C28.5861 23.0595 28.4684 22.4676 28.2396 21.9153C28.0109 21.3631 27.6756 20.8613 27.2529 20.4386C26.8303 20.016 26.3285 19.6807 25.7763 19.4519C25.224 19.2232 24.6321 19.1055 24.0344 19.1055C22.8272 19.1055 21.6694 19.585 20.8158 20.4386C19.9622 21.2923 19.4827 22.45 19.4827 23.6572C19.4827 24.8644 19.9622 26.0221 20.8158 26.8757C21.6694 27.7294 22.8272 28.2089 24.0344 28.2089Z" stroke="white" stroke-linecap="round" stroke-linejoin="round"/>
<path d="M17.9655 28.2089C18.5633 28.2089 19.1552 28.0912 19.7074 27.8624C20.2597 27.6337 20.7614 27.2984 21.1841 26.8757C21.6068 26.4531 21.942 25.9513 22.1708 25.3991C22.3995 24.8468 22.5173 24.2549 22.5173 23.6572C22.5173 23.0595 22.3995 22.4676 22.1708 21.9153C21.942 21.3631 21.6068 20.8613 21.1841 20.4386C20.7614 20.016 20.2597 19.6807 19.7074 19.4519C19.1552 19.2232 18.5633 19.1055 17.9655 19.1055C16.7584 19.1055 15.6006 19.585 14.747 20.4386C13.8934 21.2923 13.4138 22.45 13.4138 23.6572C13.4138 24.8644 13.8934 26.0221 14.747 26.8757C15.6006 27.7294 16.7584 28.2089 17.9655 28.2089Z" stroke="white" stroke-linecap="round" stroke-linejoin="round"/>
</g>
<defs>
<filter id="filter0_b_12982_68681" x="-24" y="-24" width="90" height="90" filterUnits="userSpaceOnUse" color-interpolation-filters="sRGB">
<feFlood flood-opacity="0" result="BackgroundImageFix"/>
<feGaussianBlur in="BackgroundImageFix" stdDeviation="12"/>
<feComposite in2="SourceAlpha" operator="in" result="effect1_backgroundBlur_12982_68681"/>
<feBlend mode="normal" in="SourceGraphic" in2="effect1_backgroundBlur_12982_68681" result="shape"/>
</filter>
<filter id="filter1_f_12982_68681" x="1" y="1" width="40" height="40" filterUnits="userSpaceOnUse" color-interpolation-filters="sRGB">
<feFlood flood-opacity="0" result="BackgroundImageFix"/>
<feBlend mode="normal" in="SourceGraphic" in2="BackgroundImageFix" result="shape"/>
<feGaussianBlur stdDeviation="6" result="effect1_foregroundBlur_12982_68681"/>
</filter>
<linearGradient id="paint0_linear_12982_68681" x1="3.21019" y1="0.735" x2="27.0256" y2="46.4206" gradientUnits="userSpaceOnUse">
<stop stop-color="white" stop-opacity="0.7"/>
<stop offset="1" stop-color="white" stop-opacity="0"/>
</linearGradient>
</defs>
</svg>
