<svg width="11" height="14" viewBox="0 0 11 14" fill="none" xmlns="http://www.w3.org/2000/svg">
<path d="M9.86167 4.52883L8.48234 5.90816C8.06805 5.4392 7.56388 5.05813 6.99967 4.7875V1.66683H7.66634V0.333496H2.33301V1.66683H2.99967V4.7875C2.20285 5.16634 1.52955 5.76302 1.05764 6.50851C0.585733 7.25401 0.334503 8.11786 0.333008 9.00016C0.333008 11.5728 2.42701 13.6668 4.99967 13.6668C7.57234 13.6668 9.66634 11.5728 9.66634 9.00016C9.66568 8.32428 9.51733 7.65671 9.23167 7.04416L10.8043 5.4715L9.86167 4.52883ZM3.88901 5.86083L4.33301 5.70416V1.66683H5.66634V5.70416L6.11034 5.86083C6.65048 6.05378 7.13177 6.38267 7.50778 6.81579C7.88379 7.2489 8.14183 7.77162 8.25701 8.3335H1.74234C1.85752 7.77162 2.11556 7.2489 2.49157 6.81579C2.86758 6.38267 3.34887 6.05378 3.88901 5.86083V5.86083Z" fill="black"/>
</svg>
