<svg width="20" height="20" viewBox="0 0 20 20" fill="none" xmlns="http://www.w3.org/2000/svg">
<path d="M14.2703 10.2556L14.7465 9.6762L14.2703 10.2556ZM5.37862 10.2443L5.87738 10.8044L5.37862 10.2443ZM11.3675 2.65789L10.9347 3.27045L11.3675 2.65789ZM9.42621 1.28647L9.85896 0.67391L9.42621 1.28647ZM2.12603 13.1405L1.62728 12.5803L2.12603 13.1405ZM17.7906 13.1491L17.3144 13.7285L17.7906 13.1491ZM14 14.25C14.4142 14.25 14.75 14.5858 14.75 15C14.75 15.4142 14.4142 15.75 14 15.75V14.25ZM6 15.75C5.58579 15.75 5.25 15.4142 5.25 15C5.25 14.5858 5.58579 14.25 6 14.25V15.75ZM4.47246 18.25H15.5842V19.75H4.47246V18.25ZM10.9347 3.27045L8.99346 1.89903L9.85896 0.67391L11.8002 2.04533L10.9347 3.27045ZM7.75 2.48659V6.66399H6.25V2.48659H7.75ZM5.87738 10.8044L2.62479 13.7006L1.62728 12.5803L4.87987 9.68414L5.87738 10.8044ZM17.3144 13.7285L13.7941 10.835L14.7465 9.6762L18.2668 12.5697L17.3144 13.7285ZM11.75 6.54792V4.81825H13.25V6.54792H11.75ZM13.7941 10.835C12.5015 9.77257 11.75 8.2054 11.75 6.54792H13.25C13.25 7.74776 13.7936 8.89298 14.7465 9.6762L13.7941 10.835ZM7.75 6.66399C7.75 8.24332 7.0674 9.74476 5.87738 10.8044L4.87987 9.68414C5.75613 8.90388 6.25 7.80749 6.25 6.66399H7.75ZM11.8002 2.04533C12.7061 2.68531 13.25 3.71445 13.25 4.81825H11.75C11.75 4.21277 11.4519 3.63582 10.9347 3.27045L11.8002 2.04533ZM8.99346 1.89903C8.44746 1.5133 7.75 1.9221 7.75 2.48659H6.25C6.25 0.625469 8.38547 -0.367044 9.85896 0.67391L8.99346 1.89903ZM0.25 15.6269C0.25 14.4635 0.752889 13.3589 1.62728 12.5803L2.62479 13.7006C2.06416 14.1998 1.75 14.8994 1.75 15.6269H0.25ZM18.25 15.682C18.25 14.9348 17.9116 14.2193 17.3144 13.7285L18.2668 12.5697C19.2037 13.3397 19.75 14.4772 19.75 15.682H18.25ZM15.5842 18.25C17.0772 18.25 18.25 17.0799 18.25 15.682H19.75C19.75 17.9491 17.8642 19.75 15.5842 19.75V18.25ZM4.47246 19.75C2.16114 19.75 0.25 17.9244 0.25 15.6269H1.75C1.75 17.0552 2.94821 18.25 4.47246 18.25V19.75ZM14 15.75L6 15.75V14.25L14 14.25V15.75Z" fill="white"/>
</svg>
