<svg width="17" height="18" viewBox="0 0 17 18" fill="none" xmlns="http://www.w3.org/2000/svg">
<path d="M9 6.0625C9 5.78636 8.77614 5.5625 8.5 5.5625C8.22386 5.5625 8 5.78636 8 6.0625H9ZM10.1986 11.3705C10.4378 11.5086 10.7436 11.4266 10.8816 11.1875C11.0197 10.9483 10.9378 10.6426 10.6986 10.5045L10.1986 11.3705ZM1.43765 2.10957C1.22202 2.28207 1.18706 2.59672 1.35957 2.81235C1.53207 3.02798 1.84672 3.06294 2.06235 2.89043L1.43765 2.10957ZM3.93735 1.39043C4.15298 1.21793 4.18794 0.903283 4.01543 0.687652C3.84293 0.472022 3.52828 0.437061 3.31265 0.609566L3.93735 1.39043ZM14.9377 2.89043C15.1533 3.06294 15.4679 3.02798 15.6404 2.81235C15.8129 2.59672 15.778 2.28207 15.5623 2.10957L14.9377 2.89043ZM13.6873 0.609566C13.4717 0.437061 13.1571 0.472022 12.9846 0.687652C12.8121 0.903283 12.847 1.21793 13.0627 1.39043L13.6873 0.609566ZM8.74166 9.6108L8.30207 9.84905L8.74166 9.6108ZM8.79551 9.70407L9.22163 9.4425L8.79551 9.70407ZM8 6.0625L8 7.56246L9 7.56246V6.0625H8ZM15.5 9.0625C15.5 12.9285 12.366 16.0625 8.5 16.0625V17.0625C12.9183 17.0625 16.5 13.4808 16.5 9.0625H15.5ZM8.5 16.0625C4.63401 16.0625 1.5 12.9285 1.5 9.0625H0.5C0.5 13.4808 4.08172 17.0625 8.5 17.0625V16.0625ZM1.5 9.0625C1.5 5.19651 4.63401 2.0625 8.5 2.0625V1.0625C4.08172 1.0625 0.5 4.64422 0.5 9.0625H1.5ZM8.5 2.0625C12.366 2.0625 15.5 5.19651 15.5 9.0625H16.5C16.5 4.64422 12.9183 1.0625 8.5 1.0625V2.0625ZM2.06235 2.89043L3.93735 1.39043L3.31265 0.609566L1.43765 2.10957L2.06235 2.89043ZM15.5623 2.10957L13.6873 0.609566L13.0627 1.39043L14.9377 2.89043L15.5623 2.10957ZM8 7.56246C8 8.08741 7.9995 8.51519 8.03238 8.86663C8.06622 9.22823 8.13785 9.54605 8.30207 9.84905L9.18124 9.37254C9.10381 9.22968 9.05461 9.05748 9.02803 8.77346C9.0005 8.47927 9 8.10582 9 7.56246L8 7.56246ZM10.6986 10.5045C10.228 10.2328 9.90486 10.0456 9.66385 9.87472C9.43117 9.70969 9.30664 9.58099 9.22163 9.4425L8.36939 9.96564C8.54969 10.2594 8.78911 10.4803 9.08535 10.6904C9.37326 10.8946 9.74399 11.108 10.1986 11.3705L10.6986 10.5045ZM8.30207 9.84905C8.32346 9.88851 8.34591 9.92739 8.36939 9.96564L9.22163 9.4425C9.20754 9.41955 9.19408 9.39622 9.18124 9.37254L8.30207 9.84905Z" fill="white"/>
</svg>
