<svg width="22" height="22" viewBox="0 0 22 22" fill="none" xmlns="http://www.w3.org/2000/svg">
<path d="M7.09562 19.8906L6.70135 20.5286L7.09562 19.8906ZM6.68699 19.6563L6.96312 18.959L6.68699 19.6563ZM5.85373 19.6736L6.0419 20.3996L5.85373 19.6736ZM6.24178 19.589L6.29956 20.3368L6.24178 19.589ZM2.34979 16.1696L1.62378 15.9814L2.34979 16.1696ZM2.43431 15.7812L3.18211 15.8386L2.43431 15.7812ZM2.13203 14.9282L1.49502 15.3241L2.13203 14.9282ZM2.36627 15.3347L1.6695 15.6122L2.36627 15.3347ZM1.95298 18.5094L2.68792 18.3598L1.95298 18.5094ZM3.51396 20.0704L3.66353 19.3354L3.51396 20.0704ZM7.05279 12.1078C6.63858 12.1078 6.30279 12.4436 6.30279 12.8578C6.30279 13.272 6.63858 13.6078 7.05279 13.6078V12.1078ZM15.0528 13.6078C15.467 13.6078 15.8028 13.272 15.8028 12.8578C15.8028 12.4436 15.467 12.1078 15.0528 12.1078V13.6078ZM7.05279 8.1078C6.63858 8.1078 6.30279 8.44359 6.30279 8.8578C6.30279 9.27202 6.63858 9.6078 7.05279 9.6078V8.1078ZM15.0528 9.6078C15.467 9.6078 15.8028 9.27202 15.8028 8.8578C15.8028 8.44359 15.467 8.1078 15.0528 8.1078V9.6078ZM4.48261 4.45926C8.09496 0.846912 13.9517 0.846912 17.5641 4.45926L18.6247 3.3986C14.4266 -0.799534 7.62009 -0.799534 3.42195 3.3986L4.48261 4.45926ZM17.5641 4.45926C21.1764 8.07161 21.1764 13.9284 17.5641 17.5407L18.6247 18.6014C22.8229 14.4033 22.8229 7.59674 18.6247 3.3986L17.5641 4.45926ZM2.76904 14.5323C1.68315 12.785 1.5484 10.8402 1.97494 9.02531C2.40407 7.19937 3.39389 5.54798 4.48261 4.45926L3.42195 3.3986C2.14228 4.67827 1.00974 6.57586 0.514724 8.68213C0.0171193 10.7994 0.156442 13.1701 1.49502 15.3241L2.76904 14.5323ZM17.5641 17.5407C16.5261 18.5788 14.8769 19.5687 13.0348 20.0093C11.2032 20.4475 9.23655 20.332 7.4899 19.2526L6.70135 20.5286C8.8645 21.8653 11.2614 21.9759 13.3838 21.4682C15.4958 20.963 17.3911 19.835 18.6247 18.6014L17.5641 17.5407ZM7.4899 19.2526C7.30665 19.1393 7.12408 19.0227 6.96312 18.959L6.41086 20.3536C6.39817 20.3486 6.40673 20.3505 6.46297 20.3832C6.51725 20.4149 6.58911 20.4592 6.70135 20.5286L7.4899 19.2526ZM6.0419 20.3996C6.1463 20.3725 6.20817 20.3566 6.25518 20.3459C6.29944 20.3359 6.30684 20.3362 6.29956 20.3368L6.18399 18.8413C6.01304 18.8545 5.83467 18.9037 5.66555 18.9475L6.0419 20.3996ZM6.96312 18.959C6.69983 18.8547 6.46635 18.8194 6.18399 18.8413L6.29956 20.3368C6.34236 20.3335 6.35548 20.3358 6.3566 20.336C6.35771 20.3362 6.37094 20.3378 6.41086 20.3536L6.96312 18.959ZM3.0758 16.3578C3.11965 16.1886 3.16896 16.0101 3.18211 15.8386L1.68651 15.7239C1.68706 15.7166 1.68739 15.724 1.67741 15.7682C1.66678 15.8152 1.65085 15.877 1.62378 15.9814L3.0758 16.3578ZM1.49502 15.3241C1.56432 15.4356 1.6085 15.5068 1.64002 15.5606C1.67259 15.6162 1.67448 15.6247 1.6695 15.6122L3.06305 15.0572C2.99882 14.896 2.88211 14.7143 2.76904 14.5323L1.49502 15.3241ZM3.18211 15.8386C3.2038 15.5559 3.16796 15.3207 3.06305 15.0572L1.6695 15.6122C1.68515 15.6515 1.68692 15.665 1.68717 15.6666C1.68742 15.6683 1.68974 15.6817 1.68651 15.7239L3.18211 15.8386ZM1.62378 15.9814C1.46345 16.6 1.33331 17.1005 1.25755 17.5023C1.18244 17.9006 1.14238 18.2871 1.21805 18.659L2.68792 18.3598C2.67139 18.2786 2.66672 18.1241 2.73157 17.7803C2.79576 17.4399 2.91012 16.997 3.0758 16.3578L1.62378 15.9814ZM5.66555 18.9475C5.02634 19.1132 4.58349 19.2276 4.24309 19.2918C3.89922 19.3566 3.74477 19.352 3.66353 19.3354L3.36439 20.8053C3.73623 20.881 4.12276 20.8409 4.52105 20.7658C4.92283 20.69 5.42332 20.5599 6.0419 20.3996L5.66555 18.9475ZM1.21805 18.659C1.4381 19.7402 2.28313 20.5852 3.36439 20.8053L3.66353 19.3354C3.17205 19.2354 2.78794 18.8513 2.68792 18.3598L1.21805 18.659ZM7.05279 13.6078H15.0528V12.1078H7.05279V13.6078ZM7.05279 9.6078H15.0528V8.1078H7.05279V9.6078Z" fill="white"/>
</svg>
