<svg width="9" height="10" viewBox="0 0 9 10" fill="none" xmlns="http://www.w3.org/2000/svg">
<path d="M3.5 8C3.225 8 2.9895 7.902 2.7935 7.706C2.5975 7.51 2.49967 7.27467 2.5 7V1C2.5 0.725001 2.598 0.489501 2.794 0.293501C2.99 0.0975008 3.22533 -0.000332484 3.5 8.48897e-07H8C8.275 8.48897e-07 8.5105 0.0980009 8.7065 0.294001C8.9025 0.490001 9.00033 0.725334 9 1V7C9 7.275 8.902 7.5105 8.706 7.7065C8.51 7.9025 8.27467 8.00033 8 8H3.5ZM3.5 7H8V1H3.5V7ZM1.5 10C1.225 10 0.989501 9.902 0.793501 9.706C0.597501 9.51 0.499668 9.27467 0.500001 9V2.5C0.500001 2.35833 0.548001 2.2395 0.644001 2.1435C0.740001 2.0475 0.858667 1.99967 1 2C1.14167 2 1.2605 2.048 1.3565 2.144C1.4525 2.24 1.50033 2.35867 1.5 2.5V9H6.5C6.64167 9 6.7605 9.048 6.8565 9.144C6.9525 9.24 7.00033 9.35867 7 9.5C7 9.64167 6.952 9.7605 6.856 9.8565C6.76 9.9525 6.64133 10.0003 6.5 10H1.5Z" fill="#6C6C6C"/>
</svg>
