<svg width="22" height="20" viewBox="0 0 22 20" fill="none" xmlns="http://www.w3.org/2000/svg">
<path fill-rule="evenodd" clip-rule="evenodd" d="M19.8468 1.93557C18.5193 0.581733 17.0414 0.162909 15.6535 0.264512C14.3031 0.363369 13.087 0.949139 12.1988 1.51257C11.4984 1.95689 10.5014 1.95689 9.80091 1.51257C8.9127 0.949145 7.6966 0.363382 6.34624 0.264528C4.95834 0.162926 3.48046 0.581747 2.1529 1.93557C0.58562 3.53386 0.0939029 5.50689 0.291357 7.50265C0.486535 9.47542 1.35186 11.4808 2.50598 13.2578C3.66317 15.0396 5.14136 16.6392 6.62433 17.8008C8.07467 18.9368 9.65271 19.75 10.9999 19.75C12.3471 19.75 13.9251 18.9368 15.3754 17.8008C16.8584 16.6392 18.3366 15.0396 19.4938 13.2578C20.6479 11.4808 21.5132 9.47541 21.7084 7.50265C21.9058 5.50688 21.4141 3.53386 19.8468 1.93557Z" fill="white"/>
</svg>
