<svg width="24" height="24" viewBox="0 0 24 24" fill="none" xmlns="http://www.w3.org/2000/svg">
<path d="M19.7372 23.4273H4.76038C2.69079 23.4273 1 21.7365 1 19.6669V4.69007C1 2.62047 2.69079 0.929688 4.76038 0.929688H19.7372C21.8068 0.929688 23.4976 2.62047 23.4976 4.69007V19.6669C23.4976 21.7457 21.816 23.4273 19.7372 23.4273Z" stroke="white"/>
<path d="M8.1693 16.2645C9.25953 17.3548 10.7101 17.9553 12.2531 17.9553C13.796 17.9553 15.2373 17.3548 16.3368 16.2645C17.427 15.1743 18.0276 13.7237 18.0276 12.1808C18.0276 10.6378 17.427 9.18727 16.3368 8.09703C15.2466 7.0068 13.796 6.40625 12.2531 6.40625C10.7101 6.40625 9.25953 7.0068 8.1693 8.09703C7.07907 9.18727 6.47852 10.6378 6.47852 12.1808C6.47852 13.7237 7.07907 15.1743 8.1693 16.2645Z" stroke="white"/>
<path d="M19.1532 6.21748C19.7655 6.21748 20.2619 5.72108 20.2619 5.10874C20.2619 4.4964 19.7655 4 19.1532 4C18.5408 4 18.0444 4.4964 18.0444 5.10874C18.0444 5.72108 18.5408 6.21748 19.1532 6.21748Z" stroke="white"/>
</svg>
