<svg width="49" height="49" viewBox="0 0 49 49" fill="none" xmlns="http://www.w3.org/2000/svg">
<path d="M39.5782 38.5176C39.2853 38.2247 38.8104 38.2247 38.5175 38.5176C38.2246 38.8105 38.2246 39.2853 38.5175 39.5782L39.5782 38.5176ZM47.4697 48.5305C47.7626 48.8234 48.2374 48.8234 48.5303 48.5305C48.8232 48.2376 48.8232 47.7627 48.5303 47.4699L47.4697 48.5305ZM38.5175 39.5782L47.4697 48.5305L48.5303 47.4699L39.5782 38.5176L38.5175 39.5782ZM21.1429 40.5358C10.4325 40.5358 1.75 31.8533 1.75 21.1429H0.25C0.25 32.6817 9.60407 42.0358 21.1429 42.0358V40.5358ZM40.5358 21.1429C40.5358 31.8533 31.8533 40.5358 21.1429 40.5358V42.0358C32.6817 42.0358 42.0358 32.6817 42.0358 21.1429H40.5358ZM21.1429 1.75C31.8533 1.75 40.5358 10.4325 40.5358 21.1429H42.0358C42.0358 9.60407 32.6817 0.25 21.1429 0.25V1.75ZM21.1429 0.25C9.60407 0.25 0.25 9.60407 0.25 21.1429H1.75C1.75 10.4325 10.4325 1.75 21.1429 1.75V0.25Z" fill="url(#paint0_linear_12676_65530)"/>
<defs>
<linearGradient id="paint0_linear_12676_65530" x1="24.5" y1="1" x2="24" y2="55.5" gradientUnits="userSpaceOnUse">
<stop stop-color="#888888"/>
<stop offset="1" stop-color="#888888" stop-opacity="0"/>
</linearGradient>
</defs>
</svg>
