<svg width="136" height="25" viewBox="0 0 136 25" fill="none" xmlns="http://www.w3.org/2000/svg">
<path fill-rule="evenodd" clip-rule="evenodd" d="M90.7129 6.21452V0.906738H94.6944V24.9223H74.5214V9.78205H74.5656L76.5121 8.65089L80.7591 6.21452H90.7129ZM78.6356 10.2171V21.0067L90.6687 20.9632V7.86777L86.6429 10.2171H78.6356ZM117.526 9.75568L115.071 5.70861H100.023V9.75568H111.662L100.751 15.9375L96.6139 18.2945V24.9211H118.026V24.8766H118.708V11.668L117.526 9.75568ZM114.571 20.8295H100.387L100.796 20.6072L114.571 12.8243V20.8295ZM135.999 9.80015H124.692V24.9211H120.629V5.70861H124.692V7.97675L128.446 5.70861H133.614L135.999 9.80015ZM12.2064 20.7763V24.7449H3.15907L0.775879 20.7729V5.98828H4.83613V20.7729H12.1602V5.98828H16.1763V20.7729H23.3259V5.98828H27.342V20.7729L24.9588 24.7449H23.8555H14.5434L12.2064 20.7763ZM49.5466 13.0599V5.75371H37.4074L33.3904 8.18909V5.70861H29.3735V18.9228L30.477 20.817L32.8607 24.9211H47.7367V20.817H36.3921L45.5296 15.4501L49.5466 13.0599ZM33.3904 17.8404V9.85778H45.5296V10.7147L33.3904 17.8404ZM56.4458 8.18909L60.4628 5.75371H72.6019V13.0599L68.585 15.4501L59.4475 20.817H70.7921V24.9211H55.9161L53.5324 20.817L52.4288 18.9228V5.70861H56.4458V8.18909ZM56.4458 9.85778V17.8404L68.585 10.7147V9.85778H56.4458Z"/>
</svg>
