<svg width="136" height="25" viewBox="0 0 136 25" fill="none" xmlns="http://www.w3.org/2000/svg">
<path fill-rule="evenodd" clip-rule="evenodd" d="M89.8781 5.30431V0H93.857V23.9998H73.6971V8.8695H73.7413L75.6866 7.73908L79.9308 5.30431H89.8781ZM77.8087 9.30428V20.0868L89.8339 20.0433V6.95647L85.8107 9.30428H77.8087ZM116.674 8.84694L114.22 4.80252H99.1825V8.84694H110.813L99.9094 15.0247L95.7751 17.3802V24.0024H117.173V23.958H117.855V10.758L116.674 8.84694ZM113.721 19.9135H99.5459L99.9548 19.6913L113.721 11.9136V19.9135ZM135.134 8.89139H123.835V24.0024H119.774V4.80252H123.835V7.06918L127.586 4.80252H132.75L135.134 8.89139ZM11.423 19.8577V23.8252H2.38163L0 19.8558V5.0809H4.05759V19.8558H11.3778V5.0809H15.3912V19.8558H22.5361V5.0809H26.5496V19.8558L24.168 23.8252H23.0654H13.7594L11.423 19.8577ZM48.739 12.149V4.84759H36.6078L32.5935 7.28138V4.80252H28.5792V18.0081L29.682 19.901L32.0641 24.0024H46.9304V19.901H35.5932L44.7247 14.5377L48.739 12.149ZM32.5935 16.9264V8.94898H44.7247V9.80531L32.5935 16.9264ZM55.634 7.28138L59.6483 4.84759H71.7795V12.149L67.7652 14.5377L58.6337 19.901H69.9709V24.0024H55.1046L52.7225 19.901L51.6197 18.0081V4.80252H55.634V7.28138ZM55.634 8.94898V16.9264L67.7652 9.80531V8.94898H55.634Z" fill="white"/>
</svg>
