<svg width="21" height="16" viewBox="0 0 21 16" fill="none" xmlns="http://www.w3.org/2000/svg">
<path fill-rule="evenodd" clip-rule="evenodd" d="M10.1429 9.04931C9.51322 9.04931 8.88545 8.84131 8.36028 8.42531L4.1391 5.02201C3.8351 4.77731 3.78804 4.33213 4.03181 4.02907C4.27745 3.72696 4.72169 3.67896 5.02475 3.92272L9.24216 7.32225C9.77204 7.74201 10.5184 7.74201 11.052 7.31849L15.2271 3.9246C15.5302 3.67707 15.9744 3.72413 16.221 4.02719C16.4666 4.32931 16.4205 4.77354 16.1184 5.02013L11.9358 8.41966C11.4069 8.83943 10.7744 9.04931 10.1429 9.04931Z" fill="currentColor"/>
<mask id="mask0_16019_77156" style="mask-type:luminance" maskUnits="userSpaceOnUse" x="0" y="0" width="21" height="16">
<path fill-rule="evenodd" clip-rule="evenodd" d="M0 0H21V16H0V0Z" fill="white"/>
</mask>
<g mask="url(#mask0_16019_77156)">
<path fill-rule="evenodd" clip-rule="evenodd" d="M5.49553 14.7692H14.7379C14.7398 14.7676 14.7473 14.7692 14.7529 14.7692C15.8268 14.7692 16.7793 14.4344 17.5097 13.7986C18.3577 13.0626 18.8235 12.0049 18.8235 10.8209V5.18563C18.8235 2.89394 17.1049 1.23076 14.7379 1.23076H5.49742C3.13036 1.23076 1.41177 2.89394 1.41177 5.18563V10.8209C1.41177 12.0049 1.87859 13.0626 2.72565 13.7986C3.45601 14.4344 4.40942 14.7692 5.48236 14.7692H5.49553ZM5.47953 16C4.02729 16 2.73035 15.5405 1.72894 14.6708C0.613647 13.7009 0 12.3339 0 10.8209V5.18564C0 2.22933 2.36329 0 5.49741 0H14.7379C17.872 0 20.2353 2.22933 20.2353 5.18564V10.8209C20.2353 12.3339 19.6216 13.7009 18.5064 14.6708C17.5059 15.5397 16.208 16 14.7529 16H14.7379H5.49741H5.47953Z" fill="currentColor"/>
</g>
</svg>
