<svg width="17" height="17" viewBox="0 0 17 17" fill="none" xmlns="http://www.w3.org/2000/svg">
<path d="M13.3349 7.92908V7.50267C13.3349 7.43887 13.3349 7.40696 13.3345 7.37998C13.3053 5.3407 11.6592 3.69462 9.61994 3.66542C9.59295 3.66503 9.56105 3.66503 9.49724 3.66503H9.07084M16 8.46208V7.71588C16 7.0792 16 6.76086 15.976 6.49252C15.7158 3.58692 13.4131 1.28417 10.5075 1.02403C10.2391 1 9.92079 0.999999 9.28412 1L8.53792 1M6.10904 6.44488C5.76739 7.22865 5.9403 8.14166 6.54488 8.74624L8.35155 10.5529C8.95613 11.1575 9.86914 11.3304 10.6529 10.9888C11.4367 10.6471 12.3497 10.82 12.9543 11.4246L14.0534 12.5238C14.1067 12.577 14.1333 12.6036 14.1549 12.6271C14.6848 13.2039 14.6848 14.0904 14.1549 14.6672C14.1333 14.6906 14.1067 14.7172 14.0534 14.7705L13.3853 15.4386C12.8412 15.9827 12.0569 16.2111 11.3058 16.0442C6.18791 14.9068 2.19094 10.9099 1.05363 5.79199C0.886717 5.04088 1.11512 4.25654 1.65919 3.71247L2.3273 3.04435C2.38056 2.9911 2.40718 2.96448 2.43064 2.94292C3.0074 2.41295 3.89394 2.41295 4.4707 2.94292C4.49415 2.96448 4.52078 2.9911 4.57403 3.04435L5.6732 4.14352C6.27777 4.74809 6.45068 5.66111 6.10904 6.44488Z" stroke="white" stroke-linecap="round"/>
</svg>
