<svg xmlns="http://www.w3.org/2000/svg" width="22" height="24" viewBox="0 0 22 24" fill="none">
  <path d="M4.93237 5.38691L4.75001 6.1144L4.93237 5.38691ZM8.30692 3.43861L7.58572 3.23279L8.30692 3.43861ZM2.23886 10.0522L2.77771 9.53053L2.23886 10.0522ZM2.23886 13.9488L1.70001 13.4271H1.70001L2.23886 13.9488ZM4.93237 18.6141L5.11472 19.3416L4.93237 18.6141ZM8.30692 20.5624L7.58572 20.7682L8.30692 20.5624ZM13.6939 20.5624L14.4151 20.7682L13.6939 20.5624ZM17.0685 18.6141L17.2509 17.8866L17.0685 18.6141ZM19.762 13.9488L19.2232 14.4705V14.4705L19.762 13.9488ZM19.762 10.0522L19.2232 9.53053V9.53053L19.762 10.0522ZM17.0685 5.38691L16.8861 4.65942L17.0685 5.38691ZM13.6939 3.43861L14.4151 3.23279L13.6939 3.43861ZM4.75001 6.1144C6.60892 6.58036 8.50221 5.48727 9.02813 3.64443L7.58572 3.23279C7.28195 4.29719 6.18841 4.92855 5.11472 4.65942L4.75001 6.1144ZM2.77771 9.53053C1.34244 8.048 2.74847 5.61269 4.75001 6.1144L5.11472 4.65942C1.64939 3.79079 -0.784913 8.00712 1.70001 10.5739L2.77771 9.53053ZM2.77771 14.4705C4.11069 13.0936 4.11069 10.9074 2.77771 9.53053L1.70001 10.5739C2.46993 11.3691 2.46992 12.6319 1.70001 13.4271L2.77771 14.4705ZM4.75001 17.8866C2.74847 18.3883 1.34244 15.953 2.77771 14.4705L1.70001 13.4271C-0.784914 15.9939 1.64939 20.2102 5.11472 19.3416L4.75001 17.8866ZM9.02813 20.3566C8.50221 18.5137 6.60892 17.4207 4.75001 17.8866L5.11472 19.3416C6.18841 19.0725 7.28195 19.7038 7.58572 20.7682L9.02813 20.3566ZM12.9727 20.3566C12.4065 22.3408 9.59441 22.3408 9.02813 20.3566L7.58572 20.7682C8.56613 24.2036 13.4347 24.2036 14.4151 20.7682L12.9727 20.3566ZM17.2509 17.8866C15.3919 17.4207 13.4987 18.5137 12.9727 20.3566L14.4151 20.7682C14.7189 19.7038 15.8125 19.0725 16.8861 19.3416L17.2509 17.8866ZM19.2232 14.4705C20.6584 15.953 19.2524 18.3883 17.2509 17.8866L16.8861 19.3416C20.3515 20.2102 22.7858 15.9939 20.3009 13.4271L19.2232 14.4705ZM19.2232 9.53053C17.8902 10.9074 17.8902 13.0936 19.2232 14.4705L20.3009 13.4271C19.5309 12.6319 19.5309 11.3691 20.3009 10.5739L19.2232 9.53053ZM17.2509 6.1144C19.2524 5.61269 20.6584 8.048 19.2232 9.53053L20.3009 10.5739C22.7858 8.00712 20.3515 3.79079 16.8861 4.65942L17.2509 6.1144ZM12.9727 3.64443C13.4987 5.48727 15.3919 6.58036 17.2509 6.1144L16.8861 4.65942C15.8125 4.92855 14.7189 4.29719 14.4151 3.23279L12.9727 3.64443ZM14.4151 3.23279C13.4347 -0.202596 8.56613 -0.202595 7.58572 3.23279L9.02813 3.64443C9.59441 1.66019 12.4065 1.66019 12.9727 3.64443L14.4151 3.23279ZM7.25043 12.0005C7.25043 14.0716 8.92937 15.7505 11.0004 15.7505V14.2505C9.75779 14.2505 8.75043 13.2431 8.75043 12.0005H7.25043ZM11.0004 15.7505C13.0715 15.7505 14.7504 14.0716 14.7504 12.0005H13.2504C13.2504 13.2431 12.2431 14.2505 11.0004 14.2505V15.7505ZM14.7504 12.0005C14.7504 9.92944 13.0715 8.2505 11.0004 8.2505V9.7505C12.2431 9.7505 13.2504 10.7579 13.2504 12.0005H14.7504ZM11.0004 8.2505C8.92937 8.2505 7.25043 9.92944 7.25043 12.0005H8.75043C8.75043 10.7579 9.75779 9.7505 11.0004 9.7505V8.2505Z" fill="white"/>
</svg>