<svg width="53" height="43" viewBox="0 0 53 43" fill="none" xmlns="http://www.w3.org/2000/svg">
<g opacity="0.45">
<path d="M46.7959 20.336L46.0769 20.1227L46.7959 20.336ZM44.2782 28.8233L44.9972 29.0366L44.2782 28.8233ZM8.97179 28.8233L9.69081 28.61L8.97179 28.8233ZM6.45404 20.336L5.73501 20.5493L6.45404 20.336ZM18.8996 41.4999L19.1071 40.7792L18.8996 41.4999ZM11.6483 36.0874L11.0164 36.4913L11.6483 36.0874ZM41.6017 36.0874L42.2336 36.4913L41.6017 36.0874ZM34.3504 41.4999L34.1429 40.7792L34.3504 41.4999ZM49.362 11.25V10.5H48.7731L48.6334 11.0721L49.362 11.25ZM3.888 11.25V10.5H2.93275L3.15942 11.428L3.888 11.25ZM1 10.5C0.585786 10.5 0.25 10.8358 0.25 11.25C0.25 11.6642 0.585786 12 1 12V10.5ZM52.25 12C52.6642 12 53 11.6642 53 11.25C53 10.8358 52.6642 10.5 52.25 10.5V12ZM32.5 21.5C32.5 21.0858 32.1642 20.75 31.75 20.75C31.3358 20.75 31 21.0858 31 21.5H32.5ZM31 31.75C31 32.1642 31.3358 32.5 31.75 32.5C32.1642 32.5 32.5 32.1642 32.5 31.75H31ZM34.8429 0.46967C34.55 0.176777 34.0751 0.176777 33.7822 0.46967C33.4894 0.762563 33.4894 1.23744 33.7822 1.53033L34.8429 0.46967ZM20.0896 1.53037C20.3825 1.23748 20.3825 0.762602 20.0896 0.469709C19.7967 0.176816 19.3218 0.176816 19.0289 0.469709L20.0896 1.53037ZM22.25 21.5C22.25 21.0858 21.9142 20.75 21.5 20.75C21.0858 20.75 20.75 21.0858 20.75 21.5H22.25ZM20.75 31.75C20.75 32.1642 21.0858 32.5 21.5 32.5C21.9142 32.5 22.25 32.1642 22.25 31.75H20.75ZM46.0769 20.1227L43.5592 28.61L44.9972 29.0366L47.515 20.5493L46.0769 20.1227ZM9.69081 28.61L7.17307 20.1227L5.73501 20.5493L8.25276 29.0366L9.69081 28.61ZM26.625 41.25C22.5852 41.25 20.7177 41.2429 19.1071 40.7792L18.6921 42.2207C20.5555 42.7571 22.6803 42.75 26.625 42.75V41.25ZM8.25276 29.0366C9.37463 32.8184 9.97209 34.8574 11.0164 36.4913L12.2803 35.6835C11.3777 34.2713 10.8397 32.4829 9.69081 28.61L8.25276 29.0366ZM19.1071 40.7792C16.2875 39.9675 13.8604 38.1558 12.2803 35.6835L11.0164 36.4913C12.793 39.2711 15.5219 41.308 18.6921 42.2207L19.1071 40.7792ZM43.5592 28.61C42.4103 32.4829 41.8723 34.2713 40.9697 35.6835L42.2336 36.4913C43.2779 34.8574 43.8753 32.8184 44.9972 29.0366L43.5592 28.61ZM26.625 42.75C30.5697 42.75 32.6944 42.7571 34.5579 42.2207L34.1429 40.7792C32.5323 41.2429 30.6647 41.25 26.625 41.25V42.75ZM40.9697 35.6835C39.3896 38.1558 36.9625 39.9675 34.1429 40.7792L34.5579 42.2207C37.7281 41.308 40.457 39.2711 42.2336 36.4913L40.9697 35.6835ZM47.515 20.5493C48.5983 16.8974 49.4821 13.9189 50.0905 11.428L48.6334 11.0721C48.0356 13.5194 47.164 16.4581 46.0769 20.1227L47.515 20.5493ZM7.17307 20.1227C6.08597 16.4581 5.2144 13.5194 4.61658 11.0721L3.15942 11.428C3.76788 13.9189 4.65167 16.8974 5.73501 20.5493L7.17307 20.1227ZM31 21.5V31.75H32.5V21.5H31ZM20.75 21.5V31.75H22.25V21.5H20.75ZM33.7822 1.53033L44.0323 11.7804L45.0929 10.7197L34.8429 0.46967L33.7822 1.53033ZM44.5626 12H49.6875V10.5H44.5626V12ZM49.6875 12H52.25V10.5H49.6875V12ZM49.362 12H49.6875V10.5H49.362V12ZM1 12H9.30927V10.5H1V12ZM9.30927 12H44.5626V10.5H9.30927V12ZM19.0289 0.469709L8.77894 10.7197L9.8396 11.7804L20.0896 1.53037L19.0289 0.469709ZM3.888 12H9.30927V10.5H3.888V12Z" fill="white"/>
</g>
</svg>
