<svg width="34" height="34" viewBox="0 0 34 34" fill="none" xmlns="http://www.w3.org/2000/svg">
<circle cx="17" cy="17" r="17" fill="black" fill-opacity="0.69"/>
<path d="M23.5172 17.7795L24.26 17.8829L23.5172 17.7795ZM23.2549 19.6645L23.9977 19.7679L23.2549 19.6645ZM10.7451 19.6645L11.488 19.5611L10.7451 19.6645ZM10.4828 17.7795L9.73996 17.8829L10.4828 17.7795ZM14.1836 26.7368L13.8921 27.4278L14.1836 26.7368ZM11.4751 23.5603L12.1791 23.3017L11.4751 23.5603ZM22.5249 23.5603L23.2289 23.819V23.819L22.5249 23.5603ZM19.8164 26.7368L19.5248 26.0458H19.5248L19.8164 26.7368ZM10.7466 13.9291C10.7075 13.5167 10.3414 13.2142 9.92906 13.2534C9.5167 13.2925 9.21418 13.6586 9.25336 14.0709L10.7466 13.9291ZM24.7466 14.0709C24.7858 13.6586 24.4833 13.2925 24.0709 13.2534C23.6586 13.2142 23.2925 13.5167 23.2534 13.9291L24.7466 14.0709ZM25 12.75C25.4142 12.75 25.75 12.4142 25.75 12C25.75 11.5858 25.4142 11.25 25 11.25V12.75ZM9 11.25C8.58579 11.25 8.25 11.5858 8.25 12C8.25 12.4142 8.58579 12.75 9 12.75V11.25ZM21 12V12.75H21.75V12H21ZM13 12H12.25V12.75H13V12ZM22.7744 17.6761L22.512 19.5611L23.9977 19.7679L24.26 17.8829L22.7744 17.6761ZM11.488 19.5611L11.2256 17.6761L9.73996 17.8829L10.0023 19.7679L11.488 19.5611ZM17 26.25C15.4708 26.25 14.9254 26.2358 14.4752 26.0458L13.8921 27.4278C14.6891 27.7642 15.6056 27.75 17 27.75V26.25ZM10.0023 19.7679C10.282 21.7777 10.4341 22.9017 10.7711 23.819L12.1791 23.3017C11.9116 22.5736 11.7785 21.6488 11.488 19.5611L10.0023 19.7679ZM14.4752 26.0458C13.5528 25.6566 12.695 24.7058 12.1791 23.3017L10.7711 23.819C11.3857 25.4918 12.4821 26.8328 13.8921 27.4278L14.4752 26.0458ZM22.512 19.5611C22.2215 21.6488 22.0884 22.5736 21.8209 23.3017L23.2289 23.819C23.5659 22.9017 23.718 21.7777 23.9977 19.7679L22.512 19.5611ZM17 27.75C18.3944 27.75 19.3109 27.7642 20.1079 27.4278L19.5248 26.0458C19.0746 26.2358 18.5292 26.25 17 26.25V27.75ZM21.8209 23.3017C21.305 24.7058 20.4472 25.6566 19.5248 26.0458L20.1079 27.4278C21.5179 26.8328 22.6143 25.4918 23.2289 23.819L21.8209 23.3017ZM11.2256 17.6761C11.0035 16.08 10.8377 14.887 10.7466 13.9291L9.25336 14.0709C9.34819 15.069 9.51961 16.2995 9.73996 17.8829L11.2256 17.6761ZM24.26 17.8829C24.4804 16.2995 24.6518 15.069 24.7466 14.0709L23.2534 13.9291C23.1623 14.887 22.9965 16.08 22.7744 17.6761L24.26 17.8829ZM25 11.25H9V12.75H25V11.25ZM20.25 11V12H21.75V11H20.25ZM21 11.25H13V12.75H21V11.25ZM13.75 12V11H12.25V12H13.75ZM17 7.75C18.7949 7.75 20.25 9.20507 20.25 11H21.75C21.75 8.37665 19.6234 6.25 17 6.25V7.75ZM17 6.25C14.3766 6.25 12.25 8.37665 12.25 11H13.75C13.75 9.20507 15.2051 7.75 17 7.75V6.25Z" fill="white"/>
</svg>
