<svg width="29" height="24" viewBox="0 0 29 24" fill="none" xmlns="http://www.w3.org/2000/svg">
<path d="M2 19.8468C4.7987 19.9995 7.24604 19.3651 9.63281 17.6852C7.22181 17.2858 5.54987 16.2168 4.6412 14.0082C5.3439 13.9143 5.9618 14.0905 6.68873 13.8085C4.31408 12.7983 2.7754 11.2828 2.71482 8.66313C3.46599 8.72187 4.03542 9.20351 4.93198 9.13303C2.75117 7.06547 2.08481 4.80994 3.45387 2.07277C5.73159 4.61024 8.39703 6.33712 11.6561 7.1477C11.8378 7.19469 12.0075 7.24168 12.1892 7.27692C13.0252 7.46488 14.0186 7.8643 14.5275 7.80556C15.3998 7.69983 14.5275 6.72479 14.7456 5.45606C15.4362 1.50889 19.9189 -0.288475 23.2386 2.02578C24.2078 2.70714 24.9711 2.69539 25.9282 2.28423C26.425 2.07277 26.9338 1.86132 27.5275 1.61462C27.3942 2.74238 26.4977 3.365 25.7829 4.19907C26.5946 4.37529 27.2488 4.15208 28 3.91713C27.7456 4.72771 27.1156 5.18587 26.5461 5.63227C25.9525 6.09042 25.7223 6.57207 25.698 7.32391C25.3346 18.7073 11.9954 27.5061 2.87233 20.5046C1.98789 19.8233 2.84809 20.5046 2 19.8468Z" stroke="white"/>
</svg>
