<svg width="24" height="24" viewBox="0 0 24 24" fill="none" xmlns="http://www.w3.org/2000/svg">
<path d="M3 18.9984C2.71667 18.9984 2.479 18.9024 2.287 18.7104C2.095 18.5184 1.99933 18.2811 2 17.9984C2 17.7151 2.096 17.4774 2.288 17.2854C2.48 17.0934 2.71733 16.9978 3 16.9984H21C21.2833 16.9984 21.521 17.0944 21.713 17.2864C21.905 17.4784 22.0007 17.7158 22 17.9984C22 18.2818 21.904 18.5194 21.712 18.7114C21.52 18.9034 21.2827 18.9991 21 18.9984H3ZM2.5 12.5734C2.31667 12.4734 2.2 12.3234 2.15 12.1234C2.1 11.9234 2.125 11.7318 2.225 11.5484L2.7 10.6984H1.75C1.53333 10.6984 1.35433 10.6278 1.213 10.4864C1.07167 10.3451 1.00067 10.1658 1 9.94844C1 9.73177 1.071 9.55277 1.213 9.41144C1.355 9.2701 1.534 9.1991 1.75 9.19844H2.7L2.225 8.39844C2.125 8.2151 2.1 8.02344 2.15 7.82344C2.2 7.62344 2.31667 7.47344 2.5 7.37344C2.68333 7.27344 2.875 7.24844 3.075 7.29844C3.275 7.34844 3.425 7.4651 3.525 7.64844L4 8.44844L4.475 7.64844C4.575 7.4651 4.725 7.34844 4.925 7.29844C5.125 7.24844 5.31667 7.27344 5.5 7.37344C5.68333 7.47344 5.8 7.62344 5.85 7.82344C5.9 8.02344 5.875 8.2151 5.775 8.39844L5.3 9.19844H6.25C6.46667 9.19844 6.64567 9.26944 6.787 9.41144C6.92833 9.55344 6.99933 9.73244 7 9.94844C7 10.1651 6.929 10.3444 6.787 10.4864C6.645 10.6284 6.466 10.6991 6.25 10.6984H5.3L5.775 11.5484C5.875 11.7318 5.9 11.9234 5.85 12.1234C5.8 12.3234 5.68333 12.4734 5.5 12.5734C5.31667 12.6734 5.125 12.6984 4.925 12.6484C4.725 12.5984 4.575 12.4818 4.475 12.2984L4 11.4484L3.525 12.2984C3.425 12.4818 3.275 12.5984 3.075 12.6484C2.875 12.6984 2.68333 12.6734 2.5 12.5734ZM10.5 12.5734C10.3167 12.4734 10.2 12.3234 10.15 12.1234C10.1 11.9234 10.125 11.7318 10.225 11.5484L10.7 10.6984H9.75C9.53333 10.6984 9.35433 10.6278 9.213 10.4864C9.07167 10.3451 9.00067 10.1658 9 9.94844C9 9.73177 9.071 9.55277 9.213 9.41144C9.355 9.2701 9.534 9.1991 9.75 9.19844H10.7L10.225 8.39844C10.125 8.2151 10.1 8.02344 10.15 7.82344C10.2 7.62344 10.3167 7.47344 10.5 7.37344C10.6833 7.27344 10.875 7.24844 11.075 7.29844C11.275 7.34844 11.425 7.4651 11.525 7.64844L12 8.44844L12.475 7.64844C12.575 7.4651 12.725 7.34844 12.925 7.29844C13.125 7.24844 13.3167 7.27344 13.5 7.37344C13.6833 7.47344 13.8 7.62344 13.85 7.82344C13.9 8.02344 13.875 8.2151 13.775 8.39844L13.3 9.19844H14.25C14.4667 9.19844 14.6457 9.26944 14.787 9.41144C14.9283 9.55344 14.9993 9.73244 15 9.94844C15 10.1651 14.929 10.3444 14.787 10.4864C14.645 10.6284 14.466 10.6991 14.25 10.6984H13.3L13.775 11.5484C13.875 11.7318 13.9 11.9234 13.85 12.1234C13.8 12.3234 13.6833 12.4734 13.5 12.5734C13.3167 12.6734 13.125 12.6984 12.925 12.6484C12.725 12.5984 12.575 12.4818 12.475 12.2984L12 11.4484L11.525 12.2984C11.425 12.4818 11.275 12.5984 11.075 12.6484C10.875 12.6984 10.6833 12.6734 10.5 12.5734ZM18.5 12.5734C18.3167 12.4734 18.2 12.3234 18.15 12.1234C18.1 11.9234 18.125 11.7318 18.225 11.5484L18.7 10.6984H17.75C17.5333 10.6984 17.3543 10.6278 17.213 10.4864C17.0717 10.3451 17.0007 10.1658 17 9.94844C17 9.73177 17.071 9.55277 17.213 9.41144C17.355 9.2701 17.534 9.1991 17.75 9.19844H18.7L18.225 8.39844C18.125 8.2151 18.1 8.02344 18.15 7.82344C18.2 7.62344 18.3167 7.47344 18.5 7.37344C18.6833 7.27344 18.875 7.24844 19.075 7.29844C19.275 7.34844 19.425 7.4651 19.525 7.64844L20 8.44844L20.475 7.64844C20.575 7.4651 20.725 7.34844 20.925 7.29844C21.125 7.24844 21.3167 7.27344 21.5 7.37344C21.6833 7.47344 21.8 7.62344 21.85 7.82344C21.9 8.02344 21.875 8.2151 21.775 8.39844L21.3 9.19844H22.25C22.4667 9.19844 22.6457 9.26944 22.787 9.41144C22.9283 9.55344 22.9993 9.73244 23 9.94844C23 10.1651 22.929 10.3444 22.787 10.4864C22.645 10.6284 22.466 10.6991 22.25 10.6984H21.3L21.775 11.5484C21.875 11.7318 21.9 11.9234 21.85 12.1234C21.8 12.3234 21.6833 12.4734 21.5 12.5734C21.3167 12.6734 21.125 12.6984 20.925 12.6484C20.725 12.5984 20.575 12.4818 20.475 12.2984L20 11.4484L19.525 12.2984C19.425 12.4818 19.275 12.5984 19.075 12.6484C18.875 12.6984 18.6833 12.6734 18.5 12.5734Z" fill="#FAFAFA"/>
</svg>
