<svg width="8" height="8" viewBox="0 0 8 8" fill="none" xmlns="http://www.w3.org/2000/svg">
<path d="M0.646447 6.64645C0.451184 6.84171 0.451184 7.15829 0.646447 7.35355C0.841709 7.54882 1.15829 7.54882 1.35355 7.35355L0.646447 6.64645ZM4.35355 4.35355C4.54882 4.15829 4.54882 3.84171 4.35355 3.64645C4.15829 3.45118 3.84171 3.45118 3.64645 3.64645L4.35355 4.35355ZM3.64645 3.64645C3.45118 3.84171 3.45118 4.15829 3.64645 4.35355C3.84171 4.54882 4.15829 4.54882 4.35355 4.35355L3.64645 3.64645ZM7.35355 1.35355C7.54882 1.15829 7.54882 0.841709 7.35355 0.646447C7.15829 0.451184 6.84171 0.451184 6.64645 0.646447L7.35355 1.35355ZM4.35355 3.64645C4.15829 3.45118 3.84171 3.45118 3.64645 3.64645C3.45118 3.84171 3.45118 4.15829 3.64645 4.35355L4.35355 3.64645ZM6.64645 7.35355C6.84171 7.54882 7.15829 7.54882 7.35355 7.35355C7.54882 7.15829 7.54882 6.84171 7.35355 6.64645L6.64645 7.35355ZM3.64645 4.35355C3.84171 4.54882 4.15829 4.54882 4.35355 4.35355C4.54882 4.15829 4.54882 3.84171 4.35355 3.64645L3.64645 4.35355ZM1.35355 0.646447C1.15829 0.451184 0.841709 0.451184 0.646447 0.646447C0.451184 0.841709 0.451184 1.15829 0.646447 1.35355L1.35355 0.646447ZM1.35355 7.35355L4.35355 4.35355L3.64645 3.64645L0.646447 6.64645L1.35355 7.35355ZM4.35355 4.35355L7.35355 1.35355L6.64645 0.646447L3.64645 3.64645L4.35355 4.35355ZM3.64645 4.35355L6.64645 7.35355L7.35355 6.64645L4.35355 3.64645L3.64645 4.35355ZM4.35355 3.64645L1.35355 0.646447L0.646447 1.35355L3.64645 4.35355L4.35355 3.64645Z" fill="#FF4CD8"/>
</svg>