<svg width="16" height="17" viewBox="0 0 16 17" fill="none" xmlns="http://www.w3.org/2000/svg">
<path fill-rule="evenodd" clip-rule="evenodd" d="M13.1996 1.12758L14.7656 2.37458C14.9168 2.51691 15.0021 2.71571 15.001 2.92339C14.9998 3.13106 14.9124 3.32892 14.7596 3.46958L13.5696 4.89358L9.52061 9.72258C9.44978 9.80371 9.35539 9.8607 9.25061 9.88558L7.15061 10.3616C6.8751 10.3754 6.63525 10.1751 6.59961 9.90158V7.74358C6.60676 7.63955 6.64867 7.54093 6.71861 7.46358L10.6926 2.97058L12.0566 1.34158C12.3265 0.987862 12.8201 0.895446 13.1996 1.12758Z" stroke="#919399" stroke-linecap="round" stroke-linejoin="round"/>
<path d="M7.53301 3.36859C7.80915 3.36859 8.03301 3.14473 8.03301 2.86859C8.03301 2.59245 7.80915 2.36859 7.53301 2.36859V3.36859ZM4.73301 2.86859V2.36859L4.73181 2.36859L4.73301 2.86859ZM1.00001 6.61859H1.50001L1.50001 6.61752L1.00001 6.61859ZM1.00001 12.2436L1.50001 12.2447V12.2436H1.00001ZM4.73301 15.9936L4.73181 16.4936H4.73301V15.9936ZM10.333 15.9936V16.4936L10.3342 16.4936L10.333 15.9936ZM14.066 12.2436H13.566L13.566 12.2447L14.066 12.2436ZM14.566 8.49359C14.566 8.21745 14.3422 7.99359 14.066 7.99359C13.7899 7.99359 13.566 8.21745 13.566 8.49359H14.566ZM11.1552 2.7798C11.0498 2.52455 10.7575 2.40305 10.5022 2.50842C10.247 2.6138 10.1255 2.90614 10.2308 3.16138L11.1552 2.7798ZM13.6779 5.3778C13.9476 5.3182 14.1178 5.0513 14.0582 4.78167C13.9986 4.51203 13.7317 4.34177 13.4621 4.40138L13.6779 5.3778ZM3.80001 12.6816C3.52387 12.6816 3.30001 12.9054 3.30001 13.1816C3.30001 13.4577 3.52387 13.6816 3.80001 13.6816V12.6816ZM11.267 13.6816C11.5432 13.6816 11.767 13.4577 11.767 13.1816C11.767 12.9054 11.5432 12.6816 11.267 12.6816V13.6816ZM7.53301 2.36859H4.73301V3.36859H7.53301V2.36859ZM4.73181 2.36859C2.38946 2.37422 0.494995 4.27731 0.50001 6.61966L1.50001 6.61752C1.49618 4.82735 2.94404 3.37289 4.73421 3.36859L4.73181 2.36859ZM0.500009 6.61859V12.2436H1.50001V6.61859H0.500009ZM0.50001 12.2425C0.494995 14.5849 2.38946 16.488 4.73181 16.4936L4.73421 15.4936C2.94404 15.4893 1.49618 14.0348 1.50001 12.2447L0.50001 12.2425ZM4.73301 16.4936H10.333V15.4936H4.73301V16.4936ZM10.3342 16.4936C12.6766 16.488 14.571 14.5849 14.566 12.2425L13.566 12.2447C13.5698 14.0348 12.122 15.4893 10.3318 15.4936L10.3342 16.4936ZM14.566 12.2436V8.49359H13.566V12.2436H14.566ZM10.2308 3.16138C10.4144 3.60614 10.7919 4.24034 11.3507 4.72654C11.9186 5.22065 12.7138 5.59094 13.6779 5.3778L13.4621 4.40138C12.8973 4.52624 12.415 4.32703 12.0071 3.97214C11.5901 3.60934 11.2936 3.11504 11.1552 2.7798L10.2308 3.16138ZM3.80001 13.6816H11.267V12.6816H3.80001V13.6816Z" fill="#919399"/>
</svg>