<svg width="269" height="395" viewBox="0 0 269 395" fill="none" xmlns="http://www.w3.org/2000/svg">
<path d="M323.251 323.968H39.8233C25.4726 323.968 12.5569 316.434 5.38153 304.236C-1.79384 292.038 -1.79384 276.969 5.38153 264.771L147.813 19.7323C154.629 7.53414 167.545 0 181.896 0C196.246 0 209.162 7.53414 215.979 19.7323L357.692 264.412C364.868 276.611 364.868 291.679 357.692 303.877C350.517 316.434 337.601 323.968 323.251 323.968ZM181.896 5.02276C169.339 5.02276 158.217 11.4806 151.759 22.6024L10.0455 266.924C3.58769 277.687 3.58769 290.603 10.0455 301.366C16.1446 312.129 27.6252 318.945 40.1821 318.945H323.609C336.166 318.945 347.288 312.487 353.746 301.366C359.845 290.603 359.845 277.687 353.746 266.924L211.674 21.8849C205.574 11.1218 194.453 5.02276 181.896 5.02276Z" fill="#D9DDFB"/>
<g opacity="0.1">
<path opacity="0.1" d="M182.613 394.646C168.621 394.646 156.065 387.47 148.889 375.272L8.96942 133.821C1.79405 121.623 1.79405 106.913 8.96942 94.7151C16.1448 82.5169 28.7017 75.3416 42.6937 75.3416H322.533C336.525 75.3416 349.082 82.5169 356.257 94.7151C363.433 106.913 363.074 121.623 356.257 133.821L216.338 375.272C209.521 387.47 196.964 394.646 182.613 394.646ZM43.0524 79.6468C30.8543 79.6468 19.3737 86.1046 13.2746 96.8677C7.17558 107.631 7.17558 120.546 13.2746 131.309L153.194 372.761C159.293 383.524 170.415 389.982 182.972 389.982C195.17 389.982 206.292 383.524 212.75 372.761L352.67 131.309C358.769 120.546 358.769 107.631 352.67 96.8677C346.571 86.1046 335.449 79.6468 322.892 79.6468H43.0524Z" fill="#D9DDFB"/>
</g>
<g opacity="0.64">
<path opacity="0.64" d="M255.802 341.907H104.76C68.8833 341.907 37.3117 323.609 19.3733 292.755C2.15238 262.978 2.51115 227.101 20.0908 197.323L98.6611 64.2197C115.882 35.5183 146.377 18.2974 180.102 18.2974C213.826 18.2974 244.321 35.5183 261.542 64.2197L340.112 197.323C357.692 227.101 358.051 262.978 340.83 292.755C323.25 323.609 291.679 341.907 255.802 341.907ZM180.102 22.9614C147.812 22.9614 118.752 39.4647 102.608 66.7311L24.0373 199.834C7.53391 227.818 7.17514 261.901 23.6785 290.603C40.1819 319.663 70.6772 337.243 104.76 337.243H255.802C289.885 337.243 320.021 319.663 336.884 290.603C353.028 262.26 352.669 228.177 336.166 199.834L257.596 66.7311C241.451 39.4647 212.391 22.9614 180.102 22.9614Z" fill="#D9DDFB"/>
</g>
<g opacity="0.21">
<path opacity="0.21" d="M180.102 379.577C147.095 379.577 117.317 363.074 100.814 334.731L24.0376 205.574C6.81672 176.514 6.45796 141.714 23.3201 112.653C40.1822 82.5167 71.3951 64.937 106.196 64.937H253.291C288.091 64.937 319.304 82.8754 336.166 113.012C352.67 142.072 352.67 177.232 335.449 205.933L259.39 335.09C242.528 362.715 212.75 379.577 180.102 379.577ZM104.761 332.22C120.546 358.769 148.53 374.913 180.102 374.913C211.315 374.913 239.658 359.127 255.443 332.22L331.861 202.704C348.006 175.438 348.364 142.072 332.579 114.447C316.434 86.1044 287.015 69.2422 253.65 69.2422H106.554C73.5477 69.2422 43.7699 86.1044 27.6253 114.447C11.8395 142.072 11.8395 175.079 28.3428 202.704L104.761 332.22Z" fill="#D9DDFB"/>
</g>
<g opacity="0.4">
<path opacity="0.4" d="M239.657 363.432H122.699C102.249 363.432 83.234 352.311 73.1884 334.372L13.9916 230.329C4.30487 212.75 4.30487 191.223 13.9916 174.003L73.1884 69.6009C83.5927 52.0212 102.249 40.8994 123.057 40.8994H240.016C260.466 40.8994 279.48 52.0212 289.526 69.9597L348.364 174.361C358.051 191.941 358.051 213.467 348.364 230.688L289.167 334.731C279.122 352.311 260.107 363.432 239.657 363.432ZM122.699 45.5634C104.043 45.5634 86.4629 55.6089 77.4937 72.1123L17.9381 176.155C8.96887 191.941 8.96887 211.673 17.9381 227.818L77.1349 332.22C86.4629 348.364 104.043 358.768 122.699 358.768H239.657C258.313 358.768 275.893 348.723 284.862 332.22L344.059 227.818C353.028 212.032 353.028 192.3 344.059 176.155L285.221 71.7535C275.893 55.2502 258.672 45.2046 240.016 45.2046L122.699 45.5634Z" fill="#D9DDFB"/>
</g>
<path d="M169.697 241.092V266.565H111.218L95.791 240.734V145.301H121.622V240.734H169.339L169.697 241.092Z" fill="#D9DDFB"/>
<path d="M267.641 145.301V240.375L252.214 266.565H244.68H184.766L169.698 241.092V240.734H169.339V145.301H195.529V240.734H241.81V145.301H267.641Z" fill="#D9DDFB"/>
</svg>
