<svg width="12" height="13" viewBox="0 0 12 13" fill="none" xmlns="http://www.w3.org/2000/svg">
<path d="M6.5 4.60156C6.5 4.32542 6.27614 4.10156 6 4.10156C5.72386 4.10156 5.5 4.32542 5.5 4.60156H6.5ZM4.6362 7.81923C4.44676 8.02015 4.45608 8.33659 4.657 8.52603C4.85793 8.71546 5.17437 8.70614 5.3638 8.50522L4.6362 7.81923ZM1.18765 1.71113C0.972022 1.88363 0.937061 2.19828 1.10957 2.41391C1.28207 2.62954 1.59672 2.6645 1.81235 2.492L1.18765 1.71113ZM3.06235 1.492C3.27798 1.31949 3.31294 1.00485 3.14043 0.789215C2.96793 0.573584 2.65328 0.538623 2.43765 0.711128L3.06235 1.492ZM10.1877 2.492C10.4033 2.6645 10.7179 2.62954 10.8904 2.41391C11.0629 2.19828 11.028 1.88363 10.8123 1.71113L10.1877 2.492ZM9.56235 0.711128C9.34672 0.538623 9.03207 0.573584 8.85957 0.789215C8.68706 1.00485 8.72202 1.31949 8.93765 1.492L9.56235 0.711128ZM5.45521 7.6794L5.09141 7.3364L5.45521 7.6794ZM5.5 4.60156V6.30741H6.5V4.60156H5.5ZM5.3638 8.50522L5.81902 8.02239L5.09141 7.3364L4.6362 7.81923L5.3638 8.50522ZM1.81235 2.492L3.06235 1.492L2.43765 0.711128L1.18765 1.71113L1.81235 2.492ZM10.8123 1.71113L9.56235 0.711128L8.93765 1.492L10.1877 2.492L10.8123 1.71113ZM10.5 6.60156C10.5 9.08684 8.48528 11.1016 6 11.1016V12.1016C9.03757 12.1016 11.5 9.63913 11.5 6.60156H10.5ZM6 11.1016C3.51472 11.1016 1.5 9.08684 1.5 6.60156H0.5C0.5 9.63913 2.96243 12.1016 6 12.1016V11.1016ZM1.5 6.60156C1.5 4.11628 3.51472 2.10156 6 2.10156V1.10156C2.96243 1.10156 0.5 3.564 0.5 6.60156H1.5ZM6 2.10156C8.48528 2.10156 10.5 4.11628 10.5 6.60156H11.5C11.5 3.564 9.03757 1.10156 6 1.10156V2.10156ZM5.5 6.30741C5.5 6.68996 5.35384 7.05805 5.09141 7.3364L5.81902 8.02239C6.2564 7.55848 6.5 6.94499 6.5 6.30741H5.5Z" fill="white"/>
</svg>
