<svg width="40" height="52" viewBox="0 0 40 52" fill="none" xmlns="http://www.w3.org/2000/svg">
<path fill-rule="evenodd" clip-rule="evenodd" d="M26.6883 46.2939C32.4062 39.0024 39.6087 28.4091 39.6087 21.3112C39.6087 9.54135 30.742 0 19.8044 0C8.86671 0 0 9.54135 0 21.3112C0 28.4091 7.20248 39.0024 12.9204 46.2939C15.9035 50.098 17.3951 52 19.8044 52C22.2136 52 23.7052 50.098 26.6883 46.2939ZM19.8044 29.7065C15.7027 29.7065 12.3777 26.3815 12.3777 22.2799C12.3777 18.1783 15.7027 14.8533 19.8044 14.8533C23.906 14.8533 27.231 18.1783 27.231 22.2799C27.231 26.3815 23.906 29.7065 19.8044 29.7065Z" fill="#F5F5F5"/>
</svg>
