<svg width="40" height="53" viewBox="0 0 40 53" fill="none" xmlns="http://www.w3.org/2000/svg">
<path fill-rule="evenodd" clip-rule="evenodd" d="M40 21.5217C40 28.6898 32.7264 39.3877 26.952 46.7512C23.9394 50.5929 22.4331 52.5137 20 52.5137C17.5669 52.5137 16.0606 50.5929 13.048 46.7512C7.27363 39.3877 0 28.6898 0 21.5217C0 9.63561 8.9543 0 20 0C31.0457 0 40 9.63561 40 21.5217ZM25.1948 13.0156C26.7441 12.9062 28.3939 13.3573 29.8758 14.8152C31.6253 16.5365 32.1742 18.6613 31.9538 20.8106C31.736 22.9351 30.77 25.0948 29.4817 27.0085C28.1899 28.9272 26.5398 30.65 24.8844 31.9009C23.2654 33.1242 21.5039 34 20 34C18.4962 34 16.7346 33.1242 15.1156 31.9009C13.4602 30.65 11.8101 28.9272 10.5183 27.0085C9.23 25.0948 8.26404 22.9351 8.04617 20.8106C7.82575 18.6613 8.37465 16.5365 10.1242 14.8152C11.6061 13.3573 13.2559 12.9062 14.8052 13.0156C16.3126 13.1221 17.6701 13.7529 18.6616 14.3597C19.4435 14.8382 20.5565 14.8382 21.3384 14.3597C22.3299 13.7529 23.6874 13.1221 25.1948 13.0156Z" fill="url(#paint0_radial_16391_90138)"/>
<defs>
<radialGradient id="paint0_radial_16391_90138" cx="0" cy="0" r="1" gradientUnits="userSpaceOnUse" gradientTransform="translate(20.208 26.53) rotate(-0.345869) scale(45.2471 59.4014)">
<stop stop-color="white"/>
<stop offset="1" stop-color="#DADADA"/>
</radialGradient>
</defs>
</svg>
