<svg width="18" height="18" viewBox="0 0 18 18" fill="none" xmlns="http://www.w3.org/2000/svg">
<path d="M10.2866 17.3488C9.57647 17.3488 9.00084 16.7731 9.00084 16.0631C9.00084 15.353 9.57647 14.7773 10.2866 14.7773C10.9966 14.7773 11.5723 15.353 11.5723 16.0631C11.5723 16.7731 10.9966 17.3488 10.2866 17.3488Z" stroke="white" stroke-linecap="round" stroke-linejoin="round"/>
<path d="M4.49944 17.3488C3.78936 17.3488 3.21373 16.7731 3.21373 16.0631C3.21373 15.353 3.78936 14.7773 4.49944 14.7773C5.20952 14.7773 5.78516 15.353 5.78516 16.0631C5.78516 16.7731 5.20952 17.3488 4.49944 17.3488Z" stroke="white" stroke-linecap="round" stroke-linejoin="round"/>
<path d="M7.22597 4.54113C7.42328 3.74854 7.80653 3.01435 8.344 2.39932C8.88147 1.78429 9.55769 1.30612 10.3167 1.0044C11.0757 0.70267 11.8957 0.586064 12.7087 0.664231C13.5217 0.742398 14.3044 1.01309 14.9921 1.4539C15.6797 1.89471 16.2524 2.49295 16.6629 3.19912C17.0733 3.90528 17.3097 4.69904 17.3523 5.51471C17.395 6.33037 17.2428 7.14447 16.9083 7.88962C16.5738 8.63477 16.0667 9.28953 15.4288 9.7997M12.2145 5.80113L10.286 3.87256M9.64312 12.2168V10.9311H11.5717C12.2537 10.9311 12.9077 11.2021 13.39 11.6843C13.8722 12.1665 14.1431 12.8206 14.1431 13.5026V16.074" stroke="white" stroke-linecap="round" stroke-linejoin="round"/>
<path d="M0.642578 16.058V9.62946C0.642578 9.28847 0.778037 8.96145 1.01916 8.72033C1.26027 8.47921 1.5873 8.34375 1.92829 8.34375H8.35686C8.69786 8.34375 9.02488 8.47921 9.266 8.72033C9.50712 8.96145 9.64258 9.28847 9.64258 9.62946V12.2009" stroke="white" stroke-linecap="round" stroke-linejoin="round"/>
</svg>
