<svg width="22" height="18" viewBox="0 0 22 18" fill="none" xmlns="http://www.w3.org/2000/svg">
<path d="M20.257 7.81371C20.731 8.52229 20.731 9.47886 20.257 10.1863C18.764 12.4137 15.182 17 11 17C6.81801 17 3.23601 12.4137 1.74301 10.1863C1.51239 9.84701 1.38721 9.42962 1.38721 9C1.38721 8.57038 1.51239 8.15299 1.74301 7.81371C3.23601 5.58629 6.81801 1 11 1C15.182 1 18.764 5.58629 20.257 7.81371Z" stroke="currentColor" stroke-width="1.5" stroke-linecap="round" stroke-linejoin="round"/>
<path d="M11 12C12.6569 12 14 10.6569 14 9C14 7.34315 12.6569 6 11 6C9.34315 6 8 7.34315 8 9C8 10.6569 9.34315 12 11 12Z" stroke="currentColor" stroke-width="1.5" stroke-linecap="round" stroke-linejoin="round"/>
</svg>
