<svg width="88" height="96" viewBox="0 0 88 96" fill="none" xmlns="http://www.w3.org/2000/svg">
<path d="M78.3662 78.7867H9.63526C6.17497 78.7867 3.05392 76.9497 1.28985 73.9561C-0.474221 70.9624 -0.474221 67.3565 1.28985 64.3629L35.7571 4.83062C37.4533 1.83699 40.5065 0 44.0347 0C47.5628 0 50.616 1.83699 52.3122 4.83062L86.7116 64.3629C88.4757 67.3565 88.4757 70.9624 86.7116 73.9561C85.0154 77.0177 81.8943 78.7867 78.3662 78.7867ZM44.0347 1.15663C40.9814 1.15663 38.2675 2.72147 36.7748 5.44295L2.37543 64.9752C0.814908 67.5606 0.814908 70.7583 2.37543 73.4118C3.86811 75.9972 6.58206 77.63 9.63526 77.63H78.3662C81.4194 77.63 84.1333 76.0652 85.626 73.4118C87.1187 70.8264 87.1187 67.6286 85.626 64.9752L51.2945 5.37491C49.8018 2.72147 47.0879 1.15663 44.0347 1.15663Z" fill="black"/>
<g opacity="0.1">
<path opacity="0.55" d="M44.2385 96C40.846 96 37.7928 94.231 36.0287 91.2374L2.1043 32.4536C0.340232 29.46 0.340232 25.9221 2.1043 22.9965C3.86837 20.0028 6.92157 18.2339 10.314 18.2339H78.2308C81.6232 18.2339 84.6764 20.0028 86.4405 22.9965C88.2045 25.9901 88.1367 29.528 86.4405 32.4536L52.516 91.2374C50.752 94.231 47.6987 96 44.2385 96ZM10.314 19.3905C7.32867 19.3905 4.61471 20.9554 3.12204 23.5408C1.62936 26.1262 1.62936 29.2559 3.12204 31.9093L37.0465 90.6931C38.5392 93.2785 41.1853 94.8434 44.2385 94.8434C47.2238 94.8434 49.8699 93.2785 51.4304 90.6931L85.3549 31.9093C86.8476 29.3239 86.8476 26.1942 85.3549 23.5408C83.8622 20.9554 81.2161 19.3905 78.1629 19.3905H10.314Z" fill="black"/>
</g>
<g opacity="0.64">
<path opacity="0.64" d="M62.0148 83.209H25.3086C16.6239 83.209 8.88914 78.7186 4.61466 71.2345C0.408029 63.9546 0.475878 55.2459 4.81821 48.034L23.8837 15.6484C28.0225 8.57261 35.4181 4.42236 43.6278 4.42236C51.8375 4.42236 59.233 8.57261 63.3718 15.6484L82.4373 48.034C86.7118 55.2459 86.7797 64.0226 82.6409 71.3026C78.3664 78.7186 70.6995 83.209 62.0148 83.209ZM43.6278 5.57899C35.8251 5.57899 28.7689 9.59316 24.8336 16.2608L5.76809 48.6463C1.69716 55.518 1.69716 63.7505 5.63239 70.6903C9.70333 77.7661 17.031 82.0524 25.3086 82.0524H62.0148C70.2924 82.0524 77.6201 77.8341 81.691 70.6903C85.6262 63.7505 85.5584 55.45 81.4874 48.6463L62.4219 16.2608C58.4867 9.59316 51.4982 5.57899 43.6278 5.57899Z" fill="black"/>
</g>
<g opacity="0.21">
<path opacity="0.55" d="M43.559 92.3942C35.5528 92.3942 28.3608 88.312 24.3577 81.5083L5.76715 50.0072C1.62837 42.9314 1.56052 34.4948 5.5636 27.3509C9.63453 20.071 17.2336 15.7847 25.7147 15.7847H61.4032C69.8843 15.7847 77.3477 20.139 81.5543 27.419C85.6253 34.4948 85.5574 42.9994 81.3508 50.0752L62.8281 81.5763C58.7571 88.2439 51.5651 92.3942 43.559 92.3942ZM25.3076 80.8279C29.1072 87.2914 35.9599 91.1695 43.559 91.1695C51.158 91.1695 58.0108 87.2914 61.8103 80.8279L80.3331 49.3268C84.2683 42.6592 84.3362 34.6309 80.5366 27.8952C76.6014 20.9555 69.4772 16.8733 61.4032 16.8733H25.7147C17.7086 16.8733 10.5166 20.9555 6.58134 27.8952C2.71395 34.6309 2.7818 42.7273 6.78488 49.3949L25.3076 80.8279Z" fill="black"/>
</g>
<g opacity="0.4">
<path opacity="0.4" d="M58.08 88.4478H29.7192C24.7662 88.4478 20.1525 85.7944 17.7099 81.372L3.32595 56.0623C0.951244 51.844 0.951244 46.6051 3.32595 42.3188L17.6421 16.873C20.1525 12.5867 24.6984 9.86523 29.7192 9.86523H58.1478C63.1008 9.86523 67.7145 12.5187 70.1571 16.9411L84.5411 42.3868C86.9158 46.6051 86.9158 51.844 84.5411 56.1303L70.1571 81.44C67.6467 85.7944 63.033 88.4478 58.08 88.4478ZM29.7192 11.0899C25.1733 11.0899 20.9667 13.5392 18.7277 17.4854L4.27584 42.8631C2.10468 46.7412 2.10468 51.5038 4.27584 55.3819L18.6598 80.8277C20.9667 84.7738 25.1733 87.2231 29.7192 87.2231H58.1478C62.6937 87.2231 66.9004 84.7738 69.1394 80.8277L83.5233 55.3819C85.6945 51.5038 85.6945 46.7412 83.5233 42.8631L69.1394 17.4173C66.9004 13.4032 62.6937 11.0219 58.1478 11.0219L29.7192 11.0899Z" fill="black"/>
</g>
<path d="M41.1172 58.648V64.9074H26.9368L23.2051 58.58V35.3794H29.4472V58.58H41.0493L41.1172 58.648Z" fill="black"/>
<path d="M64.8638 35.3794V58.5119L61.1321 64.9074H59.3002H44.7805L41.1167 58.648V58.58H41.0488V35.3794H47.3588V58.58H58.5538V35.3794H64.8638Z" fill="black"/>
</svg>
