<svg width="38" height="38" viewBox="0 0 38 38" fill="none" xmlns="http://www.w3.org/2000/svg">
<path d="M22.25 13C22.25 14.7949 20.7949 16.25 19 16.25V17.75C21.6234 17.75 23.75 15.6234 23.75 13H22.25ZM19 16.25C17.2051 16.25 15.75 14.7949 15.75 13H14.25C14.25 15.6234 16.3766 17.75 19 17.75V16.25ZM15.75 13C15.75 11.2051 17.2051 9.75 19 9.75V8.25C16.3766 8.25 14.25 10.3766 14.25 13H15.75ZM19 9.75C20.7949 9.75 22.25 11.2051 22.25 13H23.75C23.75 10.3766 21.6234 8.25 19 8.25V9.75ZM16 20.75H22V19.25H16V20.75ZM22 27.25H16V28.75H22V27.25ZM16 27.25C14.2051 27.25 12.75 25.7949 12.75 24H11.25C11.25 26.6234 13.3766 28.75 16 28.75V27.25ZM25.25 24C25.25 25.7949 23.7949 27.25 22 27.25V28.75C24.6234 28.75 26.75 26.6234 26.75 24H25.25ZM22 20.75C23.7949 20.75 25.25 22.2051 25.25 24H26.75C26.75 21.3766 24.6234 19.25 22 19.25V20.75ZM16 19.25C13.3766 19.25 11.25 21.3766 11.25 24H12.75C12.75 22.2051 14.2051 20.75 16 20.75V19.25Z" fill="white"/>
</svg>
