<svg width="13" height="14" viewBox="0 0 13 14" fill="none" xmlns="http://www.w3.org/2000/svg">
<path d="M2.23664 12.4271L2.53054 12.0225L2.23664 12.4271ZM1.57295 11.7634L1.97746 11.4695L1.57295 11.7634ZM11.2271 11.7634L10.8225 11.4695L11.2271 11.7634ZM10.5634 12.4271L10.8572 12.8316L10.5634 12.4271ZM10.5634 2.77295L10.8572 2.36844L10.5634 2.77295ZM11.2271 3.43664L10.8225 3.73054L11.2271 3.43664ZM2.23664 2.77295L2.53054 3.17746L2.23664 2.77295ZM1.57295 3.43664L1.97746 3.73054L1.57295 3.43664ZM10.7307 9.43694L10.6525 8.94309L10.7307 9.43694ZM8.23694 11.9307L7.74309 11.8525H7.74309L8.23694 11.9307ZM7.7 2.8C7.7 3.07614 7.92386 3.3 8.2 3.3C8.47614 3.3 8.7 3.07614 8.7 2.8H7.7ZM8.7 1C8.7 0.723858 8.47614 0.5 8.2 0.5C7.92386 0.5 7.7 0.723858 7.7 1H8.7ZM4.1 2.8C4.1 3.07614 4.32386 3.3 4.6 3.3C4.87614 3.3 5.1 3.07614 5.1 2.8H4.1ZM5.1 1C5.1 0.723858 4.87614 0.5 4.6 0.5C4.32386 0.5 4.1 0.723858 4.1 1H5.1ZM11.7826 9.4L12.2824 9.41712L11.7826 9.4ZM8.2 12.9826L8.21712 13.4823L8.2 12.9826ZM6.4 12.5C5.26394 12.5 4.45206 12.4993 3.82421 12.4313C3.20572 12.3643 2.8254 12.2368 2.53054 12.0225L1.94275 12.8316C2.43649 13.1903 3.01292 13.3492 3.7165 13.4255C4.41072 13.5007 5.28622 13.5 6.4 13.5V12.5ZM0.5 7.6C0.5 8.71378 0.499314 9.58928 0.574528 10.2835C0.650755 10.9871 0.809719 11.5635 1.16844 12.0572L1.97746 11.4695C1.76323 11.1746 1.63572 10.7943 1.56871 10.1758C1.50069 9.54794 1.5 8.73606 1.5 7.6H0.5ZM2.53054 12.0225C2.3183 11.8683 2.13166 11.6817 1.97746 11.4695L1.16844 12.0572C1.38432 12.3544 1.64562 12.6157 1.94275 12.8316L2.53054 12.0225ZM10.8225 11.4695C10.6683 11.6817 10.4817 11.8683 10.2695 12.0225L10.8572 12.8316C11.1544 12.6157 11.4157 12.3544 11.6316 12.0572L10.8225 11.4695ZM12.3 7.6C12.3 6.48622 12.3007 5.61072 12.2255 4.9165C12.1492 4.21292 11.9903 3.63649 11.6316 3.14275L10.8225 3.73054C11.0368 4.0254 11.1643 4.40572 11.2313 5.02421C11.2993 5.65206 11.3 6.46394 11.3 7.6H12.3ZM10.2695 3.17746C10.4817 3.33166 10.6683 3.5183 10.8225 3.73054L11.6316 3.14275C11.4157 2.84562 11.1544 2.58432 10.8572 2.36844L10.2695 3.17746ZM1.5 7.6C1.5 6.46394 1.50069 5.65206 1.56871 5.02421C1.63572 4.40572 1.76323 4.0254 1.97746 3.73054L1.16844 3.14275C0.809719 3.63649 0.650755 4.21292 0.574528 4.9165C0.499314 5.61072 0.5 6.48622 0.5 7.6H1.5ZM1.94275 2.36844C1.64562 2.58432 1.38432 2.84562 1.16844 3.14275L1.97746 3.73054C2.13166 3.5183 2.3183 3.33166 2.53054 3.17746L1.94275 2.36844ZM10.6525 8.94309C9.15486 9.18029 7.98029 10.3549 7.74309 11.8525L8.73078 12.0089C8.90021 10.9392 9.73918 10.1002 10.8089 9.93078L10.6525 8.94309ZM5.1 2.8V2.21736H4.1V2.8H5.1ZM5.1 2.21736V1H4.1V2.21736H5.1ZM6.4 1.7C5.70141 1.7 5.09987 1.69994 4.58288 1.71765L4.61712 2.71706C5.11334 2.70006 5.69588 2.7 6.4 2.7V1.7ZM4.58288 1.71765C3.4582 1.75618 2.61822 1.87769 1.94275 2.36844L2.53054 3.17746C2.9406 2.87953 3.50478 2.75517 4.61712 2.71706L4.58288 1.71765ZM8.7 2.8V2.21736H7.7V2.8H8.7ZM8.7 2.21736V1H7.7V2.21736H8.7ZM6.4 2.7C7.10412 2.7 7.68666 2.70006 8.18288 2.71706L8.21712 1.71765C7.70013 1.69994 7.09859 1.7 6.4 1.7V2.7ZM8.18288 2.71706C9.29522 2.75517 9.8594 2.87953 10.2695 3.17746L10.8572 2.36844C10.1818 1.87769 9.3418 1.75618 8.21712 1.71765L8.18288 2.71706ZM11.7826 8.9C11.2551 8.9 10.9317 8.89886 10.6525 8.94309L10.8089 9.93078C10.9912 9.90191 11.2185 9.9 11.7826 9.9L11.7826 8.9ZM11.3 7.6C11.3 8.30412 11.2999 8.88666 11.2829 9.38288L12.2824 9.41712C12.3001 8.90013 12.3 8.29859 12.3 7.6H11.3ZM11.2829 9.38288C11.2448 10.4952 11.1205 11.0594 10.8225 11.4695L11.6316 12.0572C12.1223 11.3818 12.2438 10.5418 12.2824 9.41712L11.2829 9.38288ZM8.7 12.9826C8.7 12.4185 8.70191 12.1912 8.73078 12.0089L7.74309 11.8525C7.69886 12.1317 7.7 12.4551 7.7 12.9826L8.7 12.9826ZM6.4 13.5C7.09859 13.5 7.70013 13.5001 8.21712 13.4823L8.18288 12.4829C7.68666 12.4999 7.10412 12.5 6.4 12.5V13.5ZM8.21712 13.4823C9.3418 13.4438 10.1818 13.3223 10.8572 12.8316L10.2695 12.0225C9.8594 12.3205 9.29522 12.4448 8.18288 12.4829L8.21712 13.4823Z" fill="white"/>
<path d="M3.9998 5.20156C3.9998 5.53293 3.73118 5.80156 3.3998 5.80156C3.06843 5.80156 2.7998 5.53293 2.7998 5.20156C2.7998 4.87019 3.06843 4.60156 3.3998 4.60156C3.73118 4.60156 3.9998 4.87019 3.9998 5.20156Z" fill="white"/>
<path d="M3.9998 7.60156C3.9998 7.93293 3.73118 8.20156 3.3998 8.20156C3.06843 8.20156 2.7998 7.93293 2.7998 7.60156C2.7998 7.27019 3.06843 7.00156 3.3998 7.00156C3.73118 7.00156 3.9998 7.27019 3.9998 7.60156Z" fill="white"/>
<path d="M6.9998 5.20156C6.9998 5.53293 6.73118 5.80156 6.3998 5.80156C6.06843 5.80156 5.7998 5.53293 5.7998 5.20156C5.7998 4.87019 6.06843 4.60156 6.3998 4.60156C6.73118 4.60156 6.9998 4.87019 6.9998 5.20156Z" fill="white"/>
<path d="M6.9998 7.60156C6.9998 7.93293 6.73118 8.20156 6.3998 8.20156C6.06843 8.20156 5.7998 7.93293 5.7998 7.60156C5.7998 7.27019 6.06843 7.00156 6.3998 7.00156C6.73118 7.00156 6.9998 7.27019 6.9998 7.60156Z" fill="white"/>
<path d="M6.9998 10.0016C6.9998 10.3329 6.73118 10.6016 6.3998 10.6016C6.06843 10.6016 5.7998 10.3329 5.7998 10.0016C5.7998 9.67019 6.06843 9.40156 6.3998 9.40156C6.73118 9.40156 6.9998 9.67019 6.9998 10.0016Z" fill="white"/>
<path d="M9.9998 5.20156C9.9998 5.53293 9.73117 5.80156 9.3998 5.80156C9.06843 5.80156 8.7998 5.53293 8.7998 5.20156C8.7998 4.87019 9.06843 4.60156 9.3998 4.60156C9.73117 4.60156 9.9998 4.87019 9.9998 5.20156Z" fill="white"/>
<path d="M9.9998 7.60156C9.9998 7.93293 9.73117 8.20156 9.3998 8.20156C9.06843 8.20156 8.7998 7.93293 8.7998 7.60156C8.7998 7.27019 9.06843 7.00156 9.3998 7.00156C9.73117 7.00156 9.9998 7.27019 9.9998 7.60156Z" fill="white"/>
<path d="M3.9998 10.0016C3.9998 10.3329 3.73118 10.6016 3.3998 10.6016C3.06843 10.6016 2.7998 10.3329 2.7998 10.0016C2.7998 9.67019 3.06843 9.40156 3.3998 9.40156C3.73118 9.40156 3.9998 9.67019 3.9998 10.0016Z" fill="white"/>
</svg>
