<svg width="24" height="24" viewBox="0 0 24 24" fill="none" xmlns="http://www.w3.org/2000/svg">
<path d="M22.1115 6.46787L14.6115 2.34287C14.5008 2.28195 14.3764 2.25 14.25 2.25C14.1236 2.25 13.9993 2.28195 13.8885 2.34287L6.38851 6.46787C6.27092 6.53261 6.17286 6.62773 6.10457 6.7433C6.03627 6.85886 6.00024 6.99064 6.00024 7.12487C6.00024 7.25911 6.03627 7.39088 6.10457 7.50645C6.17286 7.62201 6.27092 7.71713 6.38851 7.78187L13.5 11.6931V19.7324L11.8795 18.841C11.5169 18.6415 11.0612 18.7737 10.8616 19.1362C10.6619 19.499 10.7942 19.9549 11.157 20.1545L13.8885 21.6569C13.9992 21.7179 14.1236 21.75 14.25 21.75C14.3764 21.75 14.5008 21.7179 14.6115 21.6569L22.1115 17.5319C22.2291 17.4672 22.3273 17.3721 22.3956 17.2565C22.4639 17.1409 22.5 17.0091 22.5 16.8749V7.12487C22.5 6.99061 22.4639 6.85882 22.3956 6.74325C22.3273 6.62769 22.2291 6.53258 22.1115 6.46787ZM14.25 3.85637L20.1938 7.12487L14.25 10.3934L8.30626 7.12487L14.25 3.85637ZM21 16.4316L15 19.7316V11.6924L21 8.39237V16.4316Z" fill="white"/>
<path d="M7.5 11.25C7.5 11.6642 7.16421 12 6.75 12H2.25C1.83579 12 1.5 11.6642 1.5 11.25C1.5 10.8358 1.83579 10.5 2.25 10.5H6.75C7.16421 10.5 7.5 10.8358 7.5 11.25ZM9 17.25C9 17.6642 8.66421 18 8.25 18H3.75C3.33579 18 3 17.6642 3 17.25C3 16.8358 3.33579 16.5 3.75 16.5H8.25C8.66421 16.5 9 16.8358 9 17.25ZM10.5 14.25C10.5 14.6642 10.1642 15 9.75 15H5.25C4.83579 15 4.5 14.6642 4.5 14.25C4.5 13.8358 4.83579 13.5 5.25 13.5H9.75C10.1642 13.5 10.5 13.8358 10.5 14.25Z" fill="white"/>
</svg>
