<svg width="16" height="16" viewBox="0 0 16 16" fill="none" xmlns="http://www.w3.org/2000/svg">
<path d="M4.80364 1.63139C4.85914 1.48796 4.95674 1.36469 5.08362 1.2778C5.2105 1.1909 5.36072 1.14444 5.5145 1.14453H10.3808C10.9105 1.14453 11.2779 1.67139 11.0962 2.16853L9.89964 5.43025H12.6636C13.3368 5.43025 13.6791 6.23939 13.2105 6.72282L5.59107 14.5748C4.93964 15.2462 3.81622 14.6417 4.01793 13.728L4.9665 9.43025H3.38136C3.20335 9.43021 3.02802 9.3868 2.87057 9.30376C2.71311 9.22072 2.57826 9.10056 2.47769 8.95367C2.37712 8.80679 2.31387 8.63761 2.2934 8.46078C2.27293 8.28395 2.29586 8.10479 2.36022 7.93882L4.80364 1.63139ZM5.57964 2.00167L3.15907 8.2491C3.14516 8.2852 3.14024 8.32414 3.14474 8.36256C3.14925 8.40098 3.16304 8.43772 3.18492 8.46962C3.2068 8.50152 3.23612 8.52761 3.27035 8.54564C3.30458 8.56367 3.34267 8.57309 3.38136 8.5731H5.50022C5.56434 8.57313 5.62765 8.58754 5.68547 8.61529C5.74328 8.64303 5.79413 8.6834 5.83428 8.73341C5.87442 8.78342 5.90282 8.84181 5.9174 8.90426C5.93198 8.96671 5.93235 9.03163 5.9185 9.09424L4.85507 13.9131C4.84936 13.94 4.85393 13.9525 4.85736 13.9588C4.86509 13.9728 4.87683 13.9841 4.89107 13.9914C4.90494 13.9993 4.92086 14.0029 4.93679 14.0017C4.94364 14.0005 4.95679 13.9977 4.97622 13.9782L12.4391 6.28739H9.28593C9.21697 6.28737 9.14903 6.2707 9.08788 6.23881C9.02673 6.20693 8.97419 6.16075 8.9347 6.10421C8.89521 6.04767 8.86995 5.98244 8.86106 5.91405C8.85217 5.84566 8.85992 5.77614 8.88364 5.71139L10.2436 2.00167H5.57964Z" fill="white"/>
</svg>
