<svg width="20" height="21" viewBox="0 0 20 21" fill="none" xmlns="http://www.w3.org/2000/svg">
<path d="M11.5 3.44416e-07C10.4844 -0.000359007 9.48854 0.28049 8.62278 0.811421C7.75701 1.34235 7.05516 2.10263 6.595 3.008C7.69108 3.06173 8.75914 3.3726 9.71286 3.91547C10.6666 4.45834 11.4792 5.21798 12.085 6.133C12.545 6.046 13.018 6 13.5 6H16.978C16.992 5.835 17 5.669 17 5.5V1.44C17 1.05809 16.8483 0.691819 16.5782 0.421767C16.3082 0.151714 15.9419 3.44416e-07 15.56 3.44416e-07H11.5ZM6.426 15.997C5.62364 16.0205 4.8247 15.8829 4.07651 15.5921C3.32832 15.3013 2.64608 14.8633 2.0702 14.3041C1.49431 13.7449 1.03649 13.0759 0.723834 12.3366C0.411181 11.5972 0.250056 10.8027 0.25 10V5.514C0.25 4.678 0.928 4 1.764 4H6.25C8.216 4 9.962 4.946 11.056 6.407C9.41998 6.9726 8.02911 8.08516 7.118 9.557L5.53 7.97C5.38783 7.83752 5.19978 7.7654 5.00548 7.76883C4.81118 7.77225 4.62579 7.85097 4.48838 7.98838C4.35097 8.12579 4.27225 8.31118 4.26883 8.50548C4.2654 8.69978 4.33752 8.88783 4.47 9.03L6.43 10.99C6.14441 11.796 5.99897 12.6449 6 13.5C6 14.376 6.15 15.216 6.426 15.997ZM7 13.5C7 11.7761 7.68482 10.1228 8.90381 8.90381C10.1228 7.68482 11.7761 7 13.5 7H18.414C19.29 7 20 7.71 20 8.586V13.5C20 14.7216 19.6558 15.9185 19.0067 16.9534C18.3577 17.9884 17.4301 18.8195 16.3304 19.3514C15.2307 19.8834 14.0034 20.0947 12.7891 19.961C11.5748 19.8274 10.4227 19.3543 9.465 18.596L8.28 19.78C8.21134 19.8537 8.12854 19.9128 8.03654 19.9538C7.94454 19.9948 7.84522 20.0168 7.74452 20.0186C7.64382 20.0204 7.54379 20.0018 7.4504 19.9641C7.35701 19.9264 7.27218 19.8703 7.20096 19.799C7.12974 19.7278 7.0736 19.643 7.03588 19.5496C6.99816 19.4562 6.97963 19.3562 6.98141 19.2555C6.98318 19.1548 7.00523 19.0555 7.04622 18.9635C7.08721 18.8715 7.14631 18.7887 7.22 18.72L8.404 17.535C7.49283 16.3877 6.99786 14.9651 7 13.5ZM10.177 17.883L14.78 13.28C14.8537 13.2113 14.9128 13.1285 14.9538 13.0365C14.9948 12.9445 15.0168 12.8452 15.0186 12.7445C15.0204 12.6438 15.0018 12.5438 14.9641 12.4504C14.9264 12.357 14.8703 12.2722 14.799 12.201C14.7278 12.1297 14.643 12.0736 14.5496 12.0359C14.4562 11.9982 14.3562 11.9796 14.2555 11.9814C14.1548 11.9832 14.0555 12.0052 13.9635 12.0462C13.8715 12.0872 13.7887 12.1463 13.72 12.22L9.117 16.823C9.42 17.223 9.777 17.58 10.177 17.883Z" fill="black"/>
</svg>
