<svg width="24" height="25" viewBox="0 0 24 25" fill="none" xmlns="http://www.w3.org/2000/svg">
<g opacity="0.4">
<path d="M4 11.5H10C10.2652 11.5 10.5196 11.3946 10.7071 11.2071C10.8946 11.0196 11 10.7652 11 10.5V4.5C11 4.23478 10.8946 3.98043 10.7071 3.79289C10.5196 3.60536 10.2652 3.5 10 3.5H4C3.73478 3.5 3.48043 3.60536 3.29289 3.79289C3.10536 3.98043 3 4.23478 3 4.5V10.5C3 10.7652 3.10536 11.0196 3.29289 11.2071C3.48043 11.3946 3.73478 11.5 4 11.5ZM14 11.5H20C20.2652 11.5 20.5196 11.3946 20.7071 11.2071C20.8946 11.0196 21 10.7652 21 10.5V4.5C21 4.23478 20.8946 3.98043 20.7071 3.79289C20.5196 3.60536 20.2652 3.5 20 3.5H14C13.7348 3.5 13.4804 3.60536 13.2929 3.79289C13.1054 3.98043 13 4.23478 13 4.5V10.5C13 10.7652 13.1054 11.0196 13.2929 11.2071C13.4804 11.3946 13.7348 11.5 14 11.5ZM4 21.5H10C10.2652 21.5 10.5196 21.3946 10.7071 21.2071C10.8946 21.0196 11 20.7652 11 20.5V14.5C11 14.2348 10.8946 13.9804 10.7071 13.7929C10.5196 13.6054 10.2652 13.5 10 13.5H4C3.73478 13.5 3.48043 13.6054 3.29289 13.7929C3.10536 13.9804 3 14.2348 3 14.5V20.5C3 20.7652 3.10536 21.0196 3.29289 21.2071C3.48043 21.3946 3.73478 21.5 4 21.5ZM17 21.5C19.206 21.5 21 19.706 21 17.5C21 15.294 19.206 13.5 17 13.5C14.794 13.5 13 15.294 13 17.5C13 19.706 14.794 21.5 17 21.5Z" fill="white"/>
</g>
</svg>
