<svg width="24" height="25" viewBox="0 0 24 25" fill="none" xmlns="http://www.w3.org/2000/svg">
<g opacity="0.4">
<path d="M12 2.5C6.579 2.5 2 7.079 2 12.5C2 17.921 6.579 22.5 12 22.5C17.421 22.5 22 17.921 22 12.5C22 7.079 17.421 2.5 12 2.5ZM12 7.5C13.727 7.5 15 8.772 15 10.5C15 12.228 13.727 13.5 12 13.5C10.274 13.5 9 12.228 9 10.5C9 8.772 10.274 7.5 12 7.5ZM6.894 17.272C7.791 15.952 9.287 15.072 11 15.072H13C14.714 15.072 16.209 15.952 17.106 17.272C15.828 18.64 14.015 19.5 12 19.5C9.985 19.5 8.172 18.64 6.894 17.272Z" fill="white"/>
</g>
</svg>
