<svg width="276" height="276" viewBox="0 0 276 276" fill="none" xmlns="http://www.w3.org/2000/svg">
<g clip-path="url(#clip0_13636_68265)">
<path fill-rule="evenodd" clip-rule="evenodd" d="M80.9023 0.951172C81.7308 0.951172 82.4023 1.62274 82.4023 2.45117C82.4023 3.23087 81.8075 3.87162 81.0468 3.94431L80.9023 3.95117H26.9023C14.6002 3.95117 4.60405 13.8243 4.40536 26.0791L4.40234 26.4512V80.4512C4.40234 81.2796 3.73077 81.9512 2.90234 81.9512C2.12265 81.9512 1.4819 81.3563 1.40921 80.5956L1.40234 80.4512V26.4512C1.40234 12.5087 12.5919 1.17977 26.4807 0.954588L26.9023 0.951172H80.9023Z" fill="white"/>
<path fill-rule="evenodd" clip-rule="evenodd" d="M80.9023 274.951C81.7308 274.951 82.4023 274.28 82.4023 273.451C82.4023 272.671 81.8075 272.031 81.0468 271.958L80.9023 271.951H26.9023C14.6002 271.951 4.60405 262.078 4.40536 249.823L4.40234 249.451V195.451C4.40234 194.623 3.73077 193.951 2.90234 193.951C2.12265 193.951 1.4819 194.546 1.40921 195.307L1.40234 195.451V249.451C1.40234 263.394 12.5919 274.723 26.4807 274.948L26.9023 274.951H80.9023Z" fill="white"/>
<path fill-rule="evenodd" clip-rule="evenodd" d="M195.652 0.951172C194.824 0.951172 194.152 1.62274 194.152 2.45117C194.152 3.23087 194.747 3.87162 195.508 3.94431L195.652 3.95117H249.652C261.954 3.95117 271.951 13.8243 272.149 26.0791L272.152 26.4512V80.4512C272.152 81.2796 272.824 81.9512 273.652 81.9512C274.432 81.9512 275.073 81.3563 275.145 80.5956L275.152 80.4512V26.4512C275.152 12.5087 263.963 1.17977 250.074 0.954588L249.652 0.951172H195.652Z" fill="white"/>
<path fill-rule="evenodd" clip-rule="evenodd" d="M195.652 274.951C194.824 274.951 194.152 274.28 194.152 273.451C194.152 272.671 194.747 272.031 195.508 271.958L195.652 271.951H249.652C261.954 271.951 271.951 262.078 272.149 249.823L272.152 249.451V195.451C272.152 194.623 272.824 193.951 273.652 193.951C274.432 193.951 275.073 194.546 275.145 195.307L275.152 195.451V249.451C275.152 263.394 263.963 274.723 250.074 274.948L249.652 274.951H195.652Z" fill="white"/>
</g>
<defs>
<clipPath id="clip0_13636_68265">
<rect width="275.098" height="275.098" fill="white" transform="translate(0.902344 0.451172)"/>
</clipPath>
</defs>
</svg>
