<svg width="33" height="44" viewBox="0 0 33 44" fill="none" xmlns="http://www.w3.org/2000/svg">
<g opacity="0.25">
<path fill-rule="evenodd" clip-rule="evenodd" d="M22.0721 38.2865C26.801 32.2563 32.7577 23.4953 32.7577 17.6251C32.7577 7.89101 25.4246 0 16.3788 0C7.33306 0 0 7.89101 0 17.6251C0 23.4953 5.95668 32.2563 10.6856 38.2865C13.1527 41.4326 14.3863 43.0057 16.3788 43.0057C18.3714 43.0057 19.605 41.4326 22.0721 38.2865ZM16.3788 24.5683C12.9867 24.5683 10.2368 21.8184 10.2368 18.4262C10.2368 15.034 12.9867 12.2841 16.3788 12.2841C19.771 12.2841 22.5209 15.034 22.5209 18.4262C22.5209 21.8184 19.771 24.5683 16.3788 24.5683Z" fill="#F5F5F5"/>
</g>
</svg>
