<svg width="100%" height="100%"   viewBox="0 0 375 532" fill="none" xmlns="http://www.w3.org/2000/svg">
<path d="M0 37.5C0 25.8515 0 20.0272 1.90301 15.4329C4.44036 9.30721 9.30721 4.44036 15.4329 1.90301C20.0272 0 25.8515 0 37.5 0H93.75H140.625H157.854C159.908 0 160.935 0 161.937 0.135702C163.273 0.316638 164.578 0.676859 165.818 1.20663C166.748 1.60396 167.629 2.13055 169.392 3.18372L175.962 7.10781C179.688 9.33393 181.552 10.447 183.51 10.9873C186.121 11.7078 188.879 11.7078 191.49 10.9873C193.448 10.447 195.312 9.33393 199.038 7.10781L205.608 3.18372C207.371 2.13055 208.252 1.60396 209.182 1.20663C210.422 0.676859 211.727 0.316638 213.063 0.135702C214.065 0 215.092 0 217.146 0H234.375H281.25H337.5C349.149 0 354.973 0 359.567 1.90301C365.693 4.44036 370.56 9.30721 373.097 15.4329C375 20.0272 375 25.8515 375 37.5V610H0V37.5Z" fill="#252525"/>
</svg>
