<svg width="24" height="24" viewBox="0 0 24 24" fill="none" xmlns="http://www.w3.org/2000/svg">
<path d="M8.70765 22.44C8.55417 22.3752 8.42662 22.2612 8.34514 22.1159C8.26366 21.9705 8.23288 21.8022 8.25765 21.6375L9.62265 12.75H6.00015C5.88531 12.7531 5.77129 12.7297 5.66689 12.6818C5.5625 12.6338 5.47051 12.5625 5.39804 12.4734C5.32557 12.3842 5.27454 12.2796 5.2489 12.1677C5.22326 12.0557 5.22369 11.9393 5.25015 11.8275L7.50015 2.07749C7.53974 1.9097 7.63594 1.76066 7.77254 1.65548C7.90914 1.5503 8.07781 1.49539 8.25015 1.49999H15.7502C15.8622 1.49961 15.9729 1.52434 16.0741 1.57236C16.1754 1.62038 16.2646 1.69048 16.3352 1.77749C16.4067 1.86549 16.4574 1.96858 16.4834 2.07901C16.5094 2.18943 16.51 2.30431 16.4852 2.41499L15.1877 8.24999H18.7502C18.8907 8.24971 19.0285 8.28894 19.1479 8.3632C19.2672 8.43746 19.3633 8.54377 19.4252 8.66999C19.4789 8.79115 19.4996 8.92438 19.4851 9.05612C19.4706 9.18787 19.4214 9.31342 19.3427 9.41999L9.59265 22.17C9.52676 22.2677 9.43877 22.3485 9.33583 22.4058C9.23289 22.4631 9.11789 22.4954 9.00015 22.5C8.8998 22.4981 8.80064 22.4778 8.70765 22.44ZM13.3127 9.74999L14.8127 2.99999H8.85015L6.94515 11.25H11.3777L10.1852 18.96L17.2502 9.74999H13.3127Z" fill="white"/>
</svg>
